<?xml version="1.0" encoding="UTF-8" standalone="no"?>
<svg width="30px" height="30px" viewBox="0 0 30 30" version="1.1" xmlns="http://www.w3.org/2000/svg" xmlns:xlink="http://www.w3.org/1999/xlink">
    <!-- Generator: Sketch 42 (36781) - http://www.bohemiancoding.com/sketch -->
    <title>Combined Shape</title>
    <desc>Created with Sketch.</desc>
    <defs></defs>
    <g id="Welcome" stroke="none" stroke-width="1" fill="none" fill-rule="evenodd">
        <g id="Add-Transaction---Purchase---Parties@2x" transform="translate(-473.000000, -35.000000)" fill="#FFFFFF">
            <g id="Header">
                <g id="Nav" transform="translate(349.000000, 35.000000)">
                    <g id="Transactions">
                        <g id="Add" transform="translate(124.000000, 0.000000)">
                            <path d="M17,13 L17,8 L13,8 L13,13 L8,13 L8,17 L13,17 L13,22 L17,22 L17,17 L22,17 L22,13 L17,13 Z M15,30 C6.71572875,30 0,23.2842712 0,15 C0,6.71572875 6.71572875,0 15,0 C23.2842712,0 30,6.71572875 30,15 C30,23.2842712 23.2842712,30 15,30 Z" id="Combined-Shape"></path>
                        </g>
                    </g>
                </g>
            </g>
        </g>
    </g>
</svg>