<?xml version="1.0" encoding="UTF-8" standalone="no"?>
<svg width="60px" height="60px" viewBox="0 0 60 60" version="1.1" xmlns="http://www.w3.org/2000/svg" xmlns:xlink="http://www.w3.org/1999/xlink">
    <!-- Generator: Sketch 42 (36781) - http://www.bohemiancoding.com/sketch -->
    <title>noun_969264</title>
    <desc>Created with Sketch.</desc>
    <defs></defs>
    <g id="Welcome" stroke="none" stroke-width="1" fill="none" fill-rule="evenodd">
        <g id="Add-Client-Modal@2x" transform="translate(-1021.000000, -837.000000)" fill-rule="nonzero" fill="#777777">
            <g id="Modal" transform="translate(140.000000, 111.000000)">
                <g id="Still-Selling-Copy-8" transform="translate(810.000000, 656.000000)">
                    <g id="noun_969264" transform="translate(71.000000, 70.000000)">
                        <g id="Group">
                            <path d="M58.8,57.6 L55.2,57.6 L55.2,3.6 C55.2,2.9376 54.6636,2.4 54,2.4 L45.6,2.4 L45.6,1.2 C45.6,0.5376 45.0636,0 44.4,0 C43.7364,0 43.2,0.5376 43.2,1.2 L43.2,2.4 L25.2,2.4 C24.5376,2.4 24,2.9376 24,3.6 L24,24.2628 L5.7084,28.836 C5.1744,28.9692 4.8,29.4492 4.8,30 L4.8,57.6 L1.2,57.6 C0.5376,57.6 0,58.1364 0,58.8 C0,59.4636 0.5376,60 1.2,60 L58.8,60 C59.4636,60 60,59.4636 60,58.8 C60,58.1364 59.4636,57.6 58.8,57.6 Z M52.8,4.8 L52.8,57.6 L48,57.6 L48,49.2 C48,48.5364 47.4636,48 46.8,48 L39.6,48 C38.9364,48 38.4,48.5364 38.4,49.2 L38.4,57.6 L26.4,57.6 L26.4,4.8 L52.8,4.8 Z M45.6,57.6 L40.8,57.6 L40.8,50.4 L45.6,50.4 L45.6,57.6 Z M7.2,30.9372 L24,26.7372 L24,57.6 L7.2,57.6 L7.2,30.9372 Z" id="Shape"></path>
                            <path d="M13.2,38.4 L18,38.4 C18.6624,38.4 19.2,37.8636 19.2,37.2 C19.2,36.5364 18.6624,36 18,36 L13.2,36 C12.5376,36 12,36.5364 12,37.2 C12,37.8636 12.5376,38.4 13.2,38.4 Z" id="Shape"></path>
                            <path d="M18,43.2 L13.2,43.2 C12.5376,43.2 12,43.7364 12,44.4 C12,45.0636 12.5376,45.6 13.2,45.6 L18,45.6 C18.6624,45.6 19.2,45.0636 19.2,44.4 C19.2,43.7364 18.6624,43.2 18,43.2 Z" id="Shape"></path>
                            <path d="M18,50.4 L13.2,50.4 C12.5376,50.4 12,50.9364 12,51.6 C12,52.2636 12.5376,52.8 13.2,52.8 L18,52.8 C18.6624,52.8 19.2,52.2636 19.2,51.6 C19.2,50.9364 18.6624,50.4 18,50.4 Z" id="Shape"></path>
                            <path d="M32.4,52.8 C33.0636,52.8 33.6,52.2636 33.6,51.6 L33.6,49.2 C33.6,48.5364 33.0636,48 32.4,48 C31.7364,48 31.2,48.5364 31.2,49.2 L31.2,51.6 C31.2,52.2636 31.7364,52.8 32.4,52.8 Z" id="Shape"></path>
                            <path d="M32.4,43.2 C33.0636,43.2 33.6,42.6636 33.6,42 L33.6,39.6 C33.6,38.9364 33.0636,38.4 32.4,38.4 C31.7364,38.4 31.2,38.9364 31.2,39.6 L31.2,42 C31.2,42.6636 31.7364,43.2 32.4,43.2 Z" id="Shape"></path>
                            <path d="M39.6,43.2 C40.2636,43.2 40.8,42.6636 40.8,42 L40.8,39.6 C40.8,38.9364 40.2636,38.4 39.6,38.4 C38.9364,38.4 38.4,38.9364 38.4,39.6 L38.4,42 C38.4,42.6636 38.9364,43.2 39.6,43.2 Z" id="Shape"></path>
                            <path d="M46.8,43.2 C47.4636,43.2 48,42.6636 48,42 L48,39.6 C48,38.9364 47.4636,38.4 46.8,38.4 C46.1364,38.4 45.6,38.9364 45.6,39.6 L45.6,42 C45.6,42.6636 46.1364,43.2 46.8,43.2 Z" id="Shape"></path>
                            <path d="M32.4,33.6 C33.0636,33.6 33.6,33.0636 33.6,32.4 L33.6,30 C33.6,29.3376 33.0636,28.8 32.4,28.8 C31.7364,28.8 31.2,29.3376 31.2,30 L31.2,32.4 C31.2,33.0636 31.7364,33.6 32.4,33.6 Z" id="Shape"></path>
                            <path d="M39.6,33.6 C40.2636,33.6 40.8,33.0636 40.8,32.4 L40.8,30 C40.8,29.3376 40.2636,28.8 39.6,28.8 C38.9364,28.8 38.4,29.3376 38.4,30 L38.4,32.4 C38.4,33.0636 38.9364,33.6 39.6,33.6 Z" id="Shape"></path>
                            <path d="M46.8,33.6 C47.4636,33.6 48,33.0636 48,32.4 L48,30 C48,29.3376 47.4636,28.8 46.8,28.8 C46.1364,28.8 45.6,29.3376 45.6,30 L45.6,32.4 C45.6,33.0636 46.1364,33.6 46.8,33.6 Z" id="Shape"></path>
                            <path d="M32.4,24 C33.0636,24 33.6,23.4624 33.6,22.8 L33.6,20.4 C33.6,19.7376 33.0636,19.2 32.4,19.2 C31.7364,19.2 31.2,19.7376 31.2,20.4 L31.2,22.8 C31.2,23.4624 31.7364,24 32.4,24 Z" id="Shape"></path>
                            <path d="M39.6,24 C40.2636,24 40.8,23.4624 40.8,22.8 L40.8,20.4 C40.8,19.7376 40.2636,19.2 39.6,19.2 C38.9364,19.2 38.4,19.7376 38.4,20.4 L38.4,22.8 C38.4,23.4624 38.9364,24 39.6,24 Z" id="Shape"></path>
                            <path d="M46.8,24 C47.4636,24 48,23.4624 48,22.8 L48,20.4 C48,19.7376 47.4636,19.2 46.8,19.2 C46.1364,19.2 45.6,19.7376 45.6,20.4 L45.6,22.8 C45.6,23.4624 46.1364,24 46.8,24 Z" id="Shape"></path>
                            <path d="M32.4,14.4 C33.0636,14.4 33.6,13.8624 33.6,13.2 L33.6,10.8 C33.6,10.1376 33.0636,9.6 32.4,9.6 C31.7364,9.6 31.2,10.1376 31.2,10.8 L31.2,13.2 C31.2,13.8624 31.7364,14.4 32.4,14.4 Z" id="Shape"></path>
                            <path d="M39.6,14.4 C40.2636,14.4 40.8,13.8624 40.8,13.2 L40.8,10.8 C40.8,10.1376 40.2636,9.6 39.6,9.6 C38.9364,9.6 38.4,10.1376 38.4,10.8 L38.4,13.2 C38.4,13.8624 38.9364,14.4 39.6,14.4 Z" id="Shape"></path>
                            <path d="M46.8,14.4 C47.4636,14.4 48,13.8624 48,13.2 L48,10.8 C48,10.1376 47.4636,9.6 46.8,9.6 C46.1364,9.6 45.6,10.1376 45.6,10.8 L45.6,13.2 C45.6,13.8624 46.1364,14.4 46.8,14.4 Z" id="Shape"></path>
                        </g>
                    </g>
                </g>
            </g>
        </g>
    </g>
</svg>