<?xml version="1.0" encoding="UTF-8" standalone="no"?>
<svg width="84px" height="66px" viewBox="0 0 84 66" version="1.1" xmlns="http://www.w3.org/2000/svg" xmlns:xlink="http://www.w3.org/1999/xlink">
    <!-- Generator: Sketch 42 (36781) - http://www.bohemiancoding.com/sketch -->
    <title>noun_748768</title>
    <desc>Created with Sketch.</desc>
    <defs></defs>
    <g id="Welcome" stroke="none" stroke-width="1" fill="none" fill-rule="evenodd">
        <g id="Add-Client-Modal@2x" transform="translate(-1119.000000, -278.000000)" stroke="#979797" stroke-width="0.5" fill="#777777" fill-rule="nonzero">
            <g id="Modal" transform="translate(140.000000, 111.000000)">
                <g id="Sold-Copy" transform="translate(920.000000, 100.000000)">
                    <g id="noun_748768" transform="translate(59.000000, 67.000000)">
                        <path d="M82.9113729,41.6193191 L75.8774746,12.8952766 C75.7621186,12.4241489 75.338678,12.0920426 74.8526356,12.0920426 L25.3220339,12.0920426 L25.3220339,1.57276596 C25.3220339,0.991404255 24.8500593,0.519574468 24.2669492,0.519574468 L14.4194915,0.519574468 C13.8363814,0.519574468 13.3644068,0.991404255 13.3644068,1.57276596 L13.3644068,12.0920426 L8.49976271,12.0920426 C8.01372034,12.0920426 7.59027966,12.4241489 7.47492373,12.8952766 L0.440322034,41.6193191 C0.363652542,41.9331702 0.435398305,42.2652766 0.635161017,42.5194468 C0.834923729,42.773617 1.14089831,42.9224681 1.46516102,42.9224681 L3.73922034,42.9224681 L3.73922034,64.3015532 C3.73922034,64.8829149 4.21119492,65.3547447 4.79430508,65.3547447 L28.1996017,65.3547447 L35.054839,65.3547447 L48.2961525,65.3547447 L55.1513898,65.3547447 L78.5566864,65.3547447 C79.1390932,65.3547447 79.6117712,64.8829149 79.6117712,64.3015532 L79.6117712,42.9231702 L81.8851271,42.9231702 C82.2093898,42.9231702 82.5153644,42.7743191 82.7151271,42.5201489 C82.9162966,42.2652766 82.9880424,41.9338723 82.9113729,41.6193191 Z M74.0240424,14.1991277 L75.2373898,19.151234 L47.7116356,19.151234 L43.5349068,14.1991277 L74.0240424,14.1991277 Z M15.4745763,2.62595745 L23.2118644,2.62595745 L23.2118644,12.0920426 L15.4745763,12.0920426 L15.4745763,2.62595745 Z M9.32765254,14.1991277 L40.0798559,14.1991277 L35.8145,19.151234 L8.11500847,19.151234 L9.32765254,14.1991277 Z M19.6625593,63.2490638 L12.6223305,63.2490638 L12.6223305,53.3932979 C12.6223305,51.4561277 14.2014407,49.8798511 16.1420932,49.8798511 C18.0834492,49.8798511 19.6625593,51.4561277 19.6625593,53.3932979 L19.6625593,63.2490638 Z M27.1452203,63.2490638 L21.7727288,63.2490638 L21.7727288,53.3932979 C21.7727288,50.2948085 19.2468559,47.7734681 16.1420932,47.7734681 C13.0373305,47.7734681 10.512161,50.2948085 10.512161,53.3932979 L10.512161,63.2490638 L5.84938983,63.2490638 L5.84938983,42.9231702 L27.1445169,42.9231702 L27.1445169,63.2490638 L27.1452203,63.2490638 Z M27.4005508,28.9206383 C27.2359576,29.1109149 27.1452203,29.3552553 27.1452203,29.6073191 L27.1452203,40.8167872 L2.80933898,40.8167872 L7.59942373,21.257617 L34.001161,21.257617 L27.4005508,28.9206383 Z M46.3625339,62.6796383 L36.9898644,62.6796383 L36.9898644,44.2438723 L46.3625339,44.2438723 L46.3625339,62.6796383 Z M54.0970085,63.2490638 L48.4727034,63.2490638 L48.4727034,43.1906809 C48.4727034,42.6093191 48.0000254,42.1374894 47.4176186,42.1374894 L35.9347797,42.1374894 C35.3516695,42.1374894 34.8796949,42.6093191 34.8796949,43.1906809 L34.8796949,63.2490638 L29.2553898,63.2490638 L29.2553898,29.9984043 L41.8094915,15.422234 L54.0970085,29.991383 L54.0970085,63.2490638 L54.0970085,63.2490638 Z M70.2827119,63.2490638 L63.2445932,63.2490638 L63.2445932,53.3932979 C63.2445932,51.4561277 64.823,49.8798511 66.7629492,49.8798511 C68.7043051,49.8798511 70.2827119,51.4561277 70.2827119,53.3932979 L70.2827119,63.2490638 Z M77.5023051,63.2490638 L72.3928814,63.2490638 L72.3928814,53.3932979 C72.3928814,50.2948085 69.8677119,47.7734681 66.7629492,47.7734681 C63.6595932,47.7734681 61.1344237,50.2948085 61.1344237,53.3932979 L61.1344237,63.2490638 L56.2064746,63.2490638 L56.2064746,42.9231702 L77.5016017,42.9231702 L77.5016017,63.2490638 L77.5023051,63.2490638 Z M56.207178,40.8167872 L56.207178,29.6073191 C56.207178,29.358766 56.1192542,29.1193404 55.958178,28.9290638 L49.4876949,21.2569149 L75.7522712,21.2569149 L80.5430593,40.8160851 L56.207178,40.8160851 L56.207178,40.8167872 Z" id="Shape"></path>
                    </g>
                </g>
            </g>
        </g>
    </g>
</svg>