<?xml version="1.0" encoding="UTF-8" standalone="no"?>
<svg width="50px" height="63px" viewBox="0 0 50 63" version="1.1" xmlns="http://www.w3.org/2000/svg" xmlns:xlink="http://www.w3.org/1999/xlink">
    <!-- Generator: Sketch 42 (36781) - http://www.bohemiancoding.com/sketch -->
    <title>noun_304268</title>
    <desc>Created with Sketch.</desc>
    <defs></defs>
    <g id="Welcome" stroke="none" stroke-width="1" fill="none" fill-rule="evenodd">
        <g id="Add-Client-Modal@2x" transform="translate(-915.000000, -279.000000)" stroke-width="0.5" stroke="#FFFFFF" fill="#777777" fill-rule="nonzero">
            <g id="Modal" transform="translate(140.000000, 111.000000)">
                <g id="Still-Selling-Copy" transform="translate(700.000000, 100.000000)">
                    <g id="noun_304268" transform="translate(76.000000, 69.000000)">
                        <g id="Shield-12">
                            <g id="Group">
                                <path d="M46.4432655,7.97396629 C43.3930155,7.93425843 38.9536155,7.4734382 34.0459155,5.50162921 C30.2386155,3.97183146 27.3248655,2.00524719 25.2763155,0.349011236 C24.9886155,0.115988764 24.6379155,0 24.2872155,0 C23.9365155,0 23.5858155,0.115988764 23.2981155,0.349011236 C21.2485155,2.00524719 18.3347655,3.97183146 14.5285155,5.50162921 C9.62081554,7.4734382 5.18036554,7.93425843 2.13116554,7.97396629 C1.38986554,7.98337079 0.76931554,8.5298764 0.66116554,9.25924719 C-0.29013446,15.661618 -2.09823446,35.4476292 11.0404155,51.1353708 C14.9138655,55.7602921 19.2073155,58.9787191 22.9852155,61.2138539 C23.3863155,61.4510562 23.8367655,61.5701798 24.2861655,61.5701798 C24.7366155,61.5701798 25.1860155,61.4510562 25.5871155,61.2138539 C29.3660655,58.979764 33.6584655,55.7613371 37.5319155,51.1353708 C50.6726655,35.4476292 48.8635155,15.661618 47.9132655,9.25924719 C47.8051155,8.5298764 47.1835155,7.98337079 46.4432655,7.97396629 L46.4432655,7.97396629 Z M15.7076655,8.40866292 C18.7684155,7.17876404 21.6496155,5.55074157 24.2872155,3.56116854 C26.9248155,5.55074157 29.8049655,7.17876404 32.8667655,8.40866292 C36.7360155,9.96249438 40.8037155,10.8538315 44.9795655,11.0638652 C45.1234155,12.2342022 45.2536155,13.6083034 45.3344655,15.1370562 C42.3776655,14.8841798 38.7793155,14.2593034 34.8911655,12.8225056 C30.7552155,11.2927079 27.5884155,9.3261236 25.3624155,7.66988764 C25.0495155,7.43686517 24.6683655,7.3208764 24.2872155,7.3208764 C23.9060655,7.3208764 23.5249155,7.43686517 23.2120155,7.66988764 C20.9860155,9.3261236 17.8192155,11.2927079 13.6832655,12.8225056 C9.79826554,14.2582584 6.19571554,14.8862697 3.23891554,15.140191 C3.32081554,13.6103933 3.45101554,12.2352472 3.59486554,11.0638652 C7.76966554,10.8538315 11.8384155,9.96249438 15.7076655,8.40866292 L15.7076655,8.40866292 Z M13.4596155,49.1280337 C5.04281554,39.077764 3.15911554,27.100618 3.15176554,18.4286292 C7.16696554,18.1193258 11.0824155,17.2697865 14.8267155,15.885236 C17.6081655,14.8570112 20.2436655,13.5320225 22.7122155,11.9625169 L22.7122155,57.2994944 C19.2052155,54.9838989 16.0825155,52.2597303 13.4596155,49.1280337 L13.4596155,49.1280337 Z M35.1127155,49.1280337 C32.4898155,52.2607753 29.3681655,54.9838989 25.8622155,57.2984494 L25.8622155,11.9625169 C28.3307655,13.5320225 30.9652155,14.8570112 33.7477155,15.885236 C37.4899155,17.2687416 41.4085155,18.0942472 45.4226655,18.4035506 C45.4174155,27.0765843 43.5389655,39.0683596 35.1127155,49.1280337 L35.1127155,49.1280337 Z" id="Shape"></path>
                            </g>
                        </g>
                    </g>
                </g>
            </g>
        </g>
    </g>
</svg>