<?xml version="1.0" encoding="UTF-8" standalone="no"?>
<svg width="22px" height="16px" viewBox="0 0 22 16" version="1.1" xmlns="http://www.w3.org/2000/svg" xmlns:xlink="http://www.w3.org/1999/xlink">
    <!-- Generator: Sketch 43.2 (39069) - http://www.bohemiancoding.com/sketch -->
    <title>creditcard</title>
    <desc>Created with Sketch.</desc>
    <defs></defs>
    <g id="Welcome" stroke="none" stroke-width="1" fill="none" fill-rule="evenodd">
        <g id="Add-Transaction-Parties@2x" transform="translate(-36.000000, -252.000000)" fill="#777777">
            <g id="Nav" transform="translate(0.000000, 132.000000)">
                <path d="M54.3125,120.5 C55.1875044,120.5 55.9374969,120.812497 56.5625,121.4375 C57.1875031,122.062503 57.5,122.812496 57.5,123.6875 L57.5,131.9375 C57.5,132.812504 57.1875031,133.562497 56.5625,134.1875 C55.9374969,134.812503 55.1875044,135.125 54.3125,135.125 L39.6875,135.125 C38.8124956,135.125 38.0625031,134.812503 37.4375,134.1875 C36.8124969,133.562497 36.5,132.812504 36.5,131.9375 L36.5,123.6875 C36.5,122.812496 36.8124969,122.062503 37.4375,121.4375 C38.0625031,120.812497 38.8124956,120.5 39.6875,120.5 L54.3125,120.5 Z M39.6875,122.375 C39.3281232,122.375 39.0195325,122.503905 38.7617188,122.761719 C38.503905,123.019533 38.375,123.328123 38.375,123.6875 L38.375,125 L55.625,125 L55.625,123.6875 C55.625,123.328123 55.496095,123.019533 55.2382812,122.761719 C54.9804675,122.503905 54.6718768,122.375 54.3125,122.375 L39.6875,122.375 Z M54.3125,133.25 C54.6718768,133.25 54.9804675,133.121095 55.2382812,132.863281 C55.496095,132.605467 55.625,132.296877 55.625,131.9375 L55.625,126.875 L38.375,126.875 L38.375,131.9375 C38.375,132.296877 38.503905,132.605467 38.7617188,132.863281 C39.0195325,133.121095 39.3281232,133.25 39.6875,133.25 L54.3125,133.25 Z M40.625,131 L40.625,129.125 L44,129.125 L44,131 L40.625,131 Z" id="creditcard"></path>
            </g>
        </g>
    </g>
</svg>