<?xml version="1.0" encoding="UTF-8" standalone="no"?>
<svg width="60px" height="44px" viewBox="0 0 60 44" version="1.1" xmlns="http://www.w3.org/2000/svg" xmlns:xlink="http://www.w3.org/1999/xlink">
    <!-- Generator: Sketch 42 (36781) - http://www.bohemiancoding.com/sketch -->
    <title>Group</title>
    <desc>Created with Sketch.</desc>
    <defs></defs>
    <g id="Welcome" stroke="none" stroke-width="1" fill="none" fill-rule="evenodd">
        <g id="Add-Transaction-Modal@2x" transform="translate(-801.000000, -574.000000)" fill="#777777">
            <g id="Modal">
                <g id="Sold" transform="translate(730.000000, 496.000000)">
                    <g id="noun_766301" transform="translate(71.000000, 77.000000)">
                        <g id="Group" transform="translate(0.000000, 0.275600)">
                            <path d="M30,0.7226 C27.802706,0.7226 26,2.5254 26,4.7226 C26,6.92 27.802706,8.7226 30,8.7226 C32.197294,8.7226 34,6.92 34,4.7226 C34,2.5254 32.197294,0.7226 30,0.7226 Z M30,2.7226 C31.116414,2.7226 32,3.6062 32,4.7226 C32,5.839 31.116414,6.7226 30,6.7226 C28.883586,6.7226 28,5.839 28,4.7226 C28,3.6062 28.883586,2.7226 30,2.7226 Z" id="Shape" fill-rule="nonzero"></path>
                            <polygon id="Shape" points="26.257812 5.5546 12.2578124 21.0546 13.7421876 22.3946 27.742188 6.8946 26.257812 5.5546"></polygon>
                            <polygon id="Shape" points="33.742188 5.5546 32.257812 6.8946 46.257812 22.3946 47.742188 21.0546"></polygon>
                            <path d="M4,20.7226 C1.8012972,20.7226 0,22.524 0,24.7226 L0,40.7226 C0,42.9214 1.8012972,44.7226 4,44.7226 L56,44.7226 C58.198704,44.7226 60,42.9214 60,40.7226 L60,24.7226 C60,22.524 58.198704,20.7226 56,20.7226 L41.5,20.7226 C41.1393651,20.7175013 40.8039213,20.9069772 40.6221159,21.2184741 C40.4403105,21.529971 40.4403105,21.915229 40.6221159,22.2267259 C40.8039213,22.5382228 41.1393651,22.7276987 41.5,22.7226 L56,22.7226 C57.1253,22.7226 58,23.5974 58,24.7226 L58,40.7226 C58,41.848 57.1253,42.7226 56,42.7226 L4,42.7226 C2.8747028,42.7226 2,41.848 2,40.7226 L2,24.7226 C2,23.5974 2.8747028,22.7226 4,22.7226 L34.5,22.7226 C34.8606349,22.7276987 35.1960787,22.5382228 35.3778841,22.2267259 C35.5596895,21.915229 35.5596895,21.529971 35.3778841,21.2184741 C35.1960787,20.9069772 34.8606349,20.7175013 34.5,20.7226 L4,20.7226 L4,20.7226 Z" id="Shape" fill-rule="nonzero"></path>
                            <path d="M39,21.7244 C38.999994,22.277 38.552278,22.7244 38,22.7244 C37.44772,22.7244 37.000006,22.2768 37,21.7244 C37.000006,21.1718 37.447724,20.7244 38,20.7244 C38.55228,20.7244 38.999994,21.172 39,21.7244 Z" id="Shape" fill-rule="nonzero"></path>
                            <path d="M15.156,37.8924 C14.2786623,37.8924 13.4480039,37.757068 12.664,37.4864 C11.8799961,37.215732 11.1800031,36.809736 10.564,36.2684 L12.076,34.4624 C13.0746717,35.2464039 14.1339944,35.6384 15.254,35.6384 C15.6273352,35.6384 15.9096657,35.5800672 16.101,35.4634 C16.2923343,35.3467327 16.388,35.1810677 16.388,34.9664 L16.388,34.9384 C16.388,34.8357328 16.3646669,34.7424004 16.318,34.6584 C16.2713331,34.5743996 16.1850006,34.4974003 16.059,34.4274 C15.9329994,34.3573996 15.7626677,34.2874003 15.548,34.2174 C15.3333323,34.1473996 15.0580017,34.0704004 14.722,33.9864 C14.1993307,33.8650661 13.7140022,33.7320674 13.266,33.5874 C12.8179978,33.4427326 12.428335,33.2560678 12.097,33.0274 C11.765665,32.7987322 11.5043343,32.5164017 11.313,32.1804 C11.1216657,31.8443983 11.026,31.4244025 11.026,30.9204 L11.026,30.8924 C11.026,30.4350644 11.1123325,30.0150686 11.285,29.6324 C11.4576675,29.2497314 11.709665,28.9184014 12.041,28.6384 C12.372335,28.3583986 12.771331,28.1414008 13.238,27.9874 C13.704669,27.8333992 14.2319971,27.7564 14.82,27.7564 C15.6600042,27.7564 16.4089967,27.8660656 17.067,28.0854 C17.7250033,28.3047344 18.3199973,28.6290645 18.852,29.0584 L17.494,30.9764 C17.0459978,30.6497317 16.5863357,30.4070675 16.115,30.2484 C15.6436643,30.0897325 15.1886689,30.0104 14.75,30.0104 C14.4233317,30.0104 14.1783341,30.0687327 14.015,30.1854 C13.8516658,30.3020672 13.77,30.4537324 13.77,30.6404 L13.77,30.6684 C13.77,30.7804006 13.7956664,30.8783996 13.847,30.9624 C13.8983336,31.0464004 13.9869994,31.1233996 14.113,31.1934 C14.2390006,31.2634003 14.4116656,31.3333996 14.631,31.4034 C14.8503344,31.4734003 15.1326649,31.545733 15.478,31.6204 C16.0380028,31.7417339 16.5419978,31.8840658 16.99,32.0474 C17.4380022,32.2107341 17.8206651,32.4090655 18.138,32.6424 C18.4553349,32.8757345 18.6979992,33.158065 18.866,33.4894 C19.0340008,33.820735 19.118,34.2150644 19.118,34.6724 L19.118,34.7004 C19.118,35.2044025 19.0223343,35.652398 18.831,36.0444 C18.6396657,36.436402 18.3713351,36.7700653 18.026,37.0454 C17.6806649,37.3207347 17.2653358,37.5307326 16.78,37.6754 C16.2946642,37.8200674 15.7533363,37.8924 15.156,37.8924 Z M25.376,37.9204 C24.6199962,37.9204 23.9200032,37.7874013 23.276,37.5214 C22.6319968,37.2553987 22.076669,36.8937356 21.61,36.4364 C21.143331,35.9790644 20.7770013,35.4424031 20.511,34.8264 C20.2449987,34.2103969 20.112,33.5524035 20.112,32.8524 L20.112,32.8244 C20.112,32.1243965 20.2449987,31.4640698 20.511,30.8434 C20.7770013,30.2227302 21.1479976,29.6814023 21.624,29.2194 C22.1000024,28.7573977 22.6599968,28.3934013 23.304,28.1274 C23.9480032,27.8613987 24.6479962,27.7284 25.404,27.7284 C26.1600038,27.7284 26.8599968,27.8613987 27.504,28.1274 C28.1480032,28.3934013 28.703331,28.7550644 29.17,29.2124 C29.636669,29.6697356 30.0029987,30.2063969 30.269,30.8224 C30.5350013,31.4384031 30.668,32.0963965 30.668,32.7964 L30.668,32.8244 C30.668,33.5244035 30.5350013,34.1847302 30.269,34.8054 C30.0029987,35.4260698 29.6320024,35.9673977 29.156,36.4294 C28.6799976,36.8914023 28.1200032,37.2553987 27.476,37.5214 C26.8319968,37.7874013 26.1320038,37.9204 25.376,37.9204 Z M25.404,35.4704 C25.7773352,35.4704 26.1156651,35.4004007 26.419,35.2604 C26.7223348,35.1203993 26.9813323,34.9314012 27.196,34.6934 C27.4106677,34.4553988 27.5786661,34.1777349 27.7,33.8604 C27.8213339,33.5430651 27.882,33.2070684 27.882,32.8524 L27.882,32.8244 C27.882,32.4697316 27.8213339,32.1314016 27.7,31.8094 C27.5786661,31.4873984 27.4083344,31.2050679 27.189,30.9624 C26.9696656,30.7197321 26.7060015,30.5284007 26.398,30.3884 C26.0899985,30.2483993 25.7493352,30.1784 25.376,30.1784 C25.0026648,30.1784 24.6620015,30.2483993 24.354,30.3884 C24.0459985,30.5284007 23.7846677,30.7173988 23.57,30.9554 C23.3553323,31.1934012 23.1873339,31.4710651 23.066,31.7884 C22.9446661,32.1057349 22.884,32.4417316 22.884,32.7964 L22.884,32.8244 C22.884,33.1790684 22.9446661,33.5150651 23.066,33.8324 C23.1873339,34.1497349 23.3599989,34.4297321 23.584,34.6724 C23.8080011,34.9150679 24.0739985,35.1087326 24.382,35.2534 C24.6900015,35.3980674 25.0306648,35.4704 25.404,35.4704 Z M32.068,27.9244 L34.784,27.9244 L34.784,35.3444 L39.53,35.3444 L39.53,37.7244 L32.068,37.7244 L32.068,27.9244 Z M40.706,27.9244 L44.5,27.9244 C45.3680043,27.9244 46.1449966,28.0433988 46.831,28.2814 C47.5170034,28.5194012 48.0956643,28.8530645 48.567,29.2824 C49.0383357,29.7117355 49.3976654,30.2227304 49.645,30.8154 C49.8923346,31.4080696 50.016,32.0590631 50.016,32.7684 L50.016,32.7964 C50.016,33.5057369 49.8900013,34.161397 49.638,34.7634 C49.3859987,35.365403 49.0220024,35.8857311 48.546,36.3244 C48.0699976,36.7630689 47.4866701,37.1060654 46.796,37.3534 C46.1053299,37.6007346 45.3213377,37.7244 44.444,37.7244 L40.706,37.7244 L40.706,27.9244 Z M43.422,30.3184 L43.422,35.3164 L44.528,35.3164 C45.3493374,35.3164 46.0073309,35.1017355 46.502,34.6724 C46.9966691,34.2430645 47.244,33.6317373 47.244,32.8384 L47.244,32.8104 C47.244,32.0170627 46.9966691,31.4034022 46.502,30.9694 C46.0073309,30.5353978 45.3493374,30.3184 44.528,30.3184 L43.422,30.3184 Z" id="SOLD"></path>
                        </g>
                    </g>
                </g>
            </g>
        </g>
    </g>
</svg>