<?xml version="1.0" encoding="UTF-8" standalone="no"?>
<svg width="12px" height="14px" viewBox="0 0 12 14" version="1.1" xmlns="http://www.w3.org/2000/svg" xmlns:xlink="http://www.w3.org/1999/xlink">
    <!-- Generator: Sketch 42 (36781) - http://www.bohemiancoding.com/sketch -->
    <title>trash</title>
    <desc>Created with Sketch.</desc>
    <defs></defs>
    <g id="Welcome" stroke="none" stroke-width="1" fill="none" fill-rule="evenodd">
        <g id="Add-Transaction-Properties@2x" transform="translate(-736.000000, -361.000000)" fill="#F05050">
            <path d="M745.25,373.5 L745.25,366 L746.5,366 L746.5,374.75 L737,374.75 L737,366 L738.25,366 L738.25,373.5 L745.25,373.5 Z M739.75,366 L741,366 L741,372.25 L739.75,372.25 L739.75,366 Z M742.5,366 L743.75,366 L743.75,372.25 L742.5,372.25 L742.5,366 Z M744.6875,363.75 L747.25,363.75 L747.25,365 L736.25,365 L736.25,363.75 L738.8125,363.75 L739.570312,361.5 L743.929688,361.5 L744.6875,363.75 Z M740.132812,363.75 L743.367188,363.75 L743.03125,362.75 L740.46875,362.75 L740.132812,363.75 Z" id="trash"></path>
        </g>
    </g>
</svg>