<?xml version="1.0" encoding="UTF-8" standalone="no"?>
<svg width="21px" height="23px" viewBox="0 0 21 23" version="1.1" xmlns="http://www.w3.org/2000/svg" xmlns:xlink="http://www.w3.org/1999/xlink">
    <!-- Generator: Sketch 42 (36781) - http://www.bohemiancoding.com/sketch -->
    <title>man</title>
    <desc>Created with Sketch.</desc>
    <defs></defs>
    <g id="Welcome" stroke="none" stroke-width="1" fill="none" fill-rule="evenodd">
        <g id="Add-Transaction---Purchase---Parties@2x" transform="translate(-36.000000, -393.000000)" fill="#777777">
            <g id="Nav-Expanded" transform="translate(0.000000, 137.000000)">
                <path d="M43.625,269.6875 C43.625,269.328123 43.753905,269.019533 44.0117188,268.761719 C44.2695325,268.503905 44.5781232,268.375 44.9375,268.375 C45.2968768,268.375 45.6054675,268.503905 45.8632812,268.761719 C46.121095,269.019533 46.25,269.328123 46.25,269.6875 C46.25,270.046877 46.121095,270.355467 45.8632812,270.613281 C45.6054675,270.871095 45.2968768,271 44.9375,271 C44.5781232,271 44.2695325,270.871095 44.0117188,270.613281 C43.753905,270.355467 43.625,270.046877 43.625,269.6875 Z M48.5,269.6875 C48.5,269.328123 48.628905,269.019533 48.8867188,268.761719 C49.1445325,268.503905 49.4531232,268.375 49.8125,268.375 C50.1718768,268.375 50.4804675,268.503905 50.7382812,268.761719 C50.996095,269.019533 51.125,269.328123 51.125,269.6875 C51.125,270.046877 50.996095,270.355467 50.7382812,270.613281 C50.4804675,270.871095 50.1718768,271 49.8125,271 C49.4531232,271 49.1445325,270.871095 48.8867188,270.613281 C48.628905,270.355467 48.5,270.046877 48.5,269.6875 Z M55.9765625,266.570312 C56.5156277,267.250003 56.7734376,268.039058 56.75,268.9375 C56.7109373,270.031255 56.3085976,270.929684 55.5429688,271.632812 C55.2773424,271.867189 55.0234387,272.046874 54.78125,272.171875 C54.2109346,274.117197 53.236335,275.720697 51.8574219,276.982422 C50.4785087,278.244147 48.984383,278.875 47.375,278.875 C45.765617,278.875 44.2714913,278.244147 42.8925781,276.982422 C41.513665,275.720697 40.5390654,274.117197 39.96875,272.171875 C39.7109362,272.039062 39.4570325,271.859376 39.2070312,271.632812 C38.4414024,270.929684 38.0390627,270.031255 38,268.9375 C37.9765624,268.01562 38.2460909,267.210941 38.8085938,266.523438 C38.1367154,266.249999 37.3867229,265.83594 36.5585938,265.28125 L37.6953125,263.78125 C37.7265627,263.8125 37.8359366,263.888671 38.0234375,264.009766 C38.2109384,264.13086 38.4980449,264.292968 38.8847656,264.496094 C39.2714863,264.69922 39.6972633,264.873046 40.1621094,265.017578 C40.6269554,265.16211 41.1464815,265.271484 41.7207031,265.345703 C42.2949247,265.419922 42.8632784,265.390626 43.4257812,265.257812 C43.9960966,265.132812 44.578122,264.933595 45.171875,264.660156 C45.765628,264.386717 46.2675761,264.121095 46.6777344,263.863281 C47.0878927,263.605467 47.4902324,263.322267 47.8847656,263.013672 C48.2792988,262.705077 48.5390619,262.492188 48.6640625,262.375 C48.7890631,262.257812 48.8867184,262.164063 48.9570312,262.09375 L49.6015625,261.449219 L52.9179688,264.542969 C52.8554684,265.199222 52.7304697,265.859372 52.5429688,266.523438 C52.5429688,266.539063 52.5371094,266.568359 52.5253906,266.611328 C52.5136718,266.654297 52.5039063,266.6875 52.4960938,266.710938 L49.6132812,264.027344 C47.753897,265.613289 45.8242288,266.63281 43.8242188,267.085938 C43.3320288,267.195313 42.8125027,267.25 42.265625,267.25 C42.1406244,267.25 41.9531262,267.242188 41.703125,267.226562 C41.3671858,267.203125 41.1953125,267.191406 41.1875,267.191406 C40.796873,267.238281 40.4746106,267.421873 40.2207031,267.742188 C39.9667956,268.062502 39.8476562,268.441404 39.8632812,268.878906 C39.8789063,269.425784 40.0781231,269.886717 40.4609375,270.261719 C40.7656265,270.527345 41.1132793,270.660156 41.5039062,270.660156 L41.5859375,270.660156 C41.9062516,272.417978 42.6269475,273.91015 43.7480469,275.136719 C44.8691462,276.363287 46.0781185,276.976562 47.375,276.976562 C48.2343793,276.976562 49.0703084,276.697268 49.8828125,276.138672 C50.6953166,275.580075 51.3925752,274.816411 51.9746094,273.847656 C52.5566435,272.878901 52.9531239,271.816412 53.1640625,270.660156 L53.2578125,270.660156 C53.6406269,270.660156 53.9843735,270.527345 54.2890625,270.261719 C54.6718769,269.886717 54.8710937,269.425784 54.8867188,268.878906 C54.8945313,268.511717 54.8066415,268.181642 54.6230469,267.888672 C54.4394522,267.595702 54.195314,267.394532 53.890625,267.285156 C54.1484388,266.457027 54.3320307,265.570317 54.4414062,264.625 C54.6601573,262.796866 54.3281294,261.460942 53.4453125,260.617188 C53.1718736,260.359374 52.8691423,260.160157 52.5371094,260.019531 C52.2050765,259.878906 51.9023451,259.796875 51.6289062,259.773438 C51.3554674,259.75 51.089845,259.75 50.8320312,259.773438 C50.5742175,259.796875 50.3828131,259.826172 50.2578125,259.861328 C50.1328119,259.896485 50.0507814,259.921875 50.0117188,259.9375 L49.5898438,260.101562 L49.1914062,259.878906 L49.15625,259.855469 C47.9140563,259.15234 46.6835998,258.761719 45.4648438,258.683594 C44.7929654,258.644531 44.1757841,258.722655 43.6132812,258.917969 C43.1054662,259.089845 42.6347678,259.349608 42.2011719,259.697266 C41.767576,260.044924 41.4218763,260.38867 41.1640625,260.728516 C40.9062487,261.068361 40.6757823,261.441404 40.4726562,261.847656 C40.2695302,262.253908 40.1308597,262.560546 40.0566406,262.767578 C39.9824215,262.97461 39.9257814,263.156249 39.8867188,263.3125 C39.3007783,263.046874 38.7460964,262.722658 38.2226562,262.339844 C38.3320318,262.027342 38.4550774,261.716798 38.5917969,261.408203 C38.7285163,261.099608 38.9335924,260.722658 39.2070312,260.277344 C39.4804701,259.832029 39.7812484,259.425783 40.109375,259.058594 C40.4375016,258.691404 40.8554662,258.332033 41.3632812,257.980469 C41.8710963,257.628904 42.4179658,257.351564 43.0039062,257.148438 C44.9101658,256.492184 47.1562371,256.796869 49.7421875,258.0625 C50.0156264,257.984375 50.3222639,257.931641 50.6621094,257.904297 C51.0019548,257.876953 51.4042946,257.882812 51.8691406,257.921875 C52.3339867,257.960938 52.8222631,258.093749 53.3339844,258.320312 C53.8457057,258.546876 54.3124979,258.863279 54.734375,259.269531 C55.2031273,259.714846 55.5703112,260.249997 55.8359375,260.875 C56.1015638,261.500003 56.2636716,262.085935 56.3222656,262.632812 C56.3808597,263.17969 56.386719,263.759763 56.3398438,264.373047 C56.2929685,264.986331 56.2382816,265.441405 56.1757812,265.738281 C56.1132809,266.035158 56.0468754,266.312499 55.9765625,266.570312 Z" id="man"></path>
            </g>
        </g>
    </g>
</svg>