<?xml version="1.0" encoding="UTF-8" standalone="no"?>
<svg width="20px" height="22px" viewBox="0 0 20 22" version="1.1" xmlns="http://www.w3.org/2000/svg" xmlns:xlink="http://www.w3.org/1999/xlink">
    <!-- Generator: Sketch 42 (36781) - http://www.bohemiancoding.com/sketch -->
    <title>user</title>
    <desc>Created with Sketch.</desc>
    <defs></defs>
    <g id="Welcome" stroke="none" stroke-width="1" fill="none" fill-rule="evenodd">
        <g id="Add-Transaction---Purchase---Parties@2x" transform="translate(-37.000000, -191.000000)" fill="#777777">
            <g id="Nav-Expanded" transform="translate(0.000000, 137.000000)">
                <path d="M47,66.125 C45.507805,66.125 44.2597706,65.5214904 43.2558594,64.3144531 C42.2519481,63.1074158 41.75,61.6054777 41.75,59.8085938 C41.75,58.8710891 41.9882789,57.9921916 42.4648438,57.171875 C42.9414086,56.3515584 43.5839803,55.7011743 44.3925781,55.2207031 C45.2011759,54.740232 46.0703079,54.5 47,54.5 C47.9296921,54.5 48.7988241,54.740232 49.6074219,55.2207031 C50.4160197,55.7011743 51.0585914,56.3515584 51.5351562,57.171875 C52.0117211,57.9921916 52.25,58.8710891 52.25,59.8085938 C52.25,61.6054777 51.7480519,63.1074158 50.7441406,64.3144531 C49.7402294,65.5214904 48.492195,66.125 47,66.125 Z M47,56.3164062 C46.0937455,56.3164062 45.2968784,56.6660121 44.609375,57.3652344 C43.9218716,58.0644566 43.578125,58.8789016 43.578125,59.8085938 C43.578125,61.0898502 43.9042936,62.160152 44.5566406,63.0195312 C45.2089876,63.8789105 46.0234326,64.3085938 47,64.3085938 C47.9765674,64.3085938 48.7910124,63.8789105 49.4433594,63.0195312 C50.0957064,62.160152 50.421875,61.0898502 50.421875,59.8085938 C50.421875,58.8789016 50.0781284,58.0644566 49.390625,57.3652344 C48.7031216,56.6660121 47.9062545,56.3164062 47,56.3164062 Z M39.1367188,75.5 L37.2617188,75.5 L37.4257812,73.578125 C37.6289073,71.6562404 38.5527262,70.1835989 40.1972656,69.1601562 C41.8418051,68.1367136 44.1093605,67.625 47,67.625 C49.8906395,67.625 52.1581949,68.1347605 53.8027344,69.1542969 C55.4472738,70.1738332 56.3710927,71.6445216 56.5742188,73.5664062 L56.7382812,75.5 L54.8632812,75.5 L54.6992188,73.7421875 C54.6289059,73.0703091 54.4199236,72.474612 54.0722656,71.9550781 C53.7246076,71.4355443 53.3007838,71.023439 52.8007812,70.71875 C52.3007787,70.414061 51.712894,70.1640635 51.0371094,69.96875 C50.3613247,69.7734365 49.7011751,69.6406254 49.0566406,69.5703125 C48.4121062,69.4999996 47.7265661,69.4648438 47,69.4648438 C46.2734339,69.4648438 45.5878938,69.4999996 44.9433594,69.5703125 C44.2988249,69.6406254 43.6386753,69.7734365 42.9628906,69.96875 C42.287106,70.1640635 41.6992213,70.4160141 41.1992188,70.7246094 C40.6992162,71.0332047 40.2753924,71.4453099 39.9277344,71.9609375 C39.5800764,72.4765651 39.3710941,73.0742154 39.3007812,73.7539062 L39.1367188,75.5 Z" id="user"></path>
            </g>
        </g>
    </g>
</svg>