<?xml version="1.0" encoding="UTF-8" standalone="no"?>
<svg width="18px" height="18px" viewBox="0 0 18 18" version="1.1" xmlns="http://www.w3.org/2000/svg" xmlns:xlink="http://www.w3.org/1999/xlink">
    <!-- Generator: Sketch 42 (36781) - http://www.bohemiancoding.com/sketch -->
    <title>calendar</title>
    <desc>Created with Sketch.</desc>
    <defs></defs>
    <g id="Welcome" stroke="none" stroke-width="1" fill="none" fill-rule="evenodd">
        <g id="Add-Transaction-Pre-Inspection@2x" transform="translate(-820.000000, -1044.000000)" fill="#777777">
            <g id="Date" transform="translate(390.000000, 998.000000)">
                <path d="M446.875044,45.9999528 C447.500046,45.9999528 448.000047,46.4999541 448.000047,47.1249557 L448.000047,62.874997 C448.000047,63.4999987 447.500046,64 446.875044,64 L431.125003,64 C430.500001,64 430,63.4999987 430,62.874997 L430,47.1249557 C430,46.4999541 430.500001,45.9999528 431.125003,45.9999528 L432.625007,45.9999528 L432.625007,48.2499587 C432.625007,48.8749603 433.125008,49.3749616 433.75001,49.3749616 C434.375011,49.3749616 434.875013,48.8749603 434.875013,48.2499587 L434.875013,45.9999528 L443.125034,45.9999528 L443.125034,48.2499587 C443.125034,48.8749603 443.625036,49.3749616 444.250037,49.3749616 C444.875039,49.3749616 445.37504,48.8749603 445.37504,48.2499587 L445.37504,45.9999528 L446.875044,45.9999528 Z M435.625015,61.3749931 L435.625015,58.3749852 L432.625007,58.3749852 L432.625007,61.3749931 L435.625015,61.3749931 Z M435.625015,56.1249793 L435.625015,53.1249715 L432.625007,53.1249715 L432.625007,56.1249793 L435.625015,56.1249793 Z M440.500028,61.3749931 L440.500028,58.3749852 L437.50002,58.3749852 L437.50002,61.3749931 L440.500028,61.3749931 Z M440.500028,56.1249793 L440.500028,53.1249715 L437.50002,53.1249715 L437.50002,56.1249793 L440.500028,56.1249793 Z M445.37504,61.3749931 L445.37504,58.3749852 L442.375032,58.3749852 L442.375032,61.3749931 L445.37504,61.3749931 Z M445.37504,56.1249793 L445.37504,53.1249715 L442.375032,53.1249715 L442.375032,56.1249793 L445.37504,56.1249793 Z" id="calendar"></path>
            </g>
        </g>
    </g>
</svg>