<?xml version="1.0" encoding="UTF-8" standalone="no"?>
<svg width="73px" height="73px" viewBox="0 0 73 73" version="1.1" xmlns="http://www.w3.org/2000/svg" xmlns:xlink="http://www.w3.org/1999/xlink">
    <!-- Generator: Sketch 42 (36781) - http://www.bohemiancoding.com/sketch -->
    <title>noun_857196</title>
    <desc>Created with Sketch.</desc>
    <defs></defs>
    <g id="Welcome" stroke="none" stroke-width="1" fill="none" fill-rule="evenodd">
        <g id="Add-Client-Modal@2x" transform="translate(-243.000000, -276.000000)" stroke="#FFFFFF" stroke-width="2.5" fill="#777777" fill-rule="nonzero">
            <g id="noun_857196" transform="translate(245.000000, 277.000000)">
                <g id="Group" transform="translate(0.000000, 0.514605)">
                    <path d="M34.4999992,0.292197273 C15.4746846,0.292197273 -1.20348841e-06,15.8535416 -1.20348841e-06,34.9854114 C-1.20348841e-06,54.1172489 15.4746846,69.6785932 34.4999992,69.6785932 C53.5253122,69.6785932 69.0000008,54.1172489 69.0000008,34.9854114 C69.0000008,15.8535416 53.5253122,0.292197273 34.4999992,0.292197273 L34.4999992,0.292197273 Z M34.4999992,5.13310636 C50.9236592,5.13310636 64.1860457,18.4697302 64.1860457,34.9854114 C64.1860457,41.0484886 62.39698,46.6702364 59.3219469,51.3739057 C59.2083456,51.0247148 59.1008982,50.661808 58.9960422,50.3157636 C58.544694,47.884175 56.9400428,45.4637205 54.2573469,44.99625 C49.6486604,43.8965568 45.2732179,43.0793307 43.1752248,40.3067 C42.9602176,39.0392693 42.5988582,37.9566807 42.3478265,36.751617 C43.8099847,34.5185864 44.8006161,32.7950291 45.5320562,31.0786041 C46.833628,28.0246359 46.9881247,25.916178 46.5349632,24.3971814 C46.0818016,22.8781848 45.7326376,22.8037155 45.7326376,21.2707609 C45.7075248,17.2250518 43.0009436,14.3942495 39.2137422,14.0850768 C37.8111808,13.2075007 36.8460875,12.3949541 35.0767509,12.2192291 C29.3327657,11.7490155 23.372642,16.5889564 23.2675213,22.0775791 L23.2675213,30.1457609 C23.519628,32.8846666 25.0543806,34.9173159 26.677405,36.8524693 C26.8492471,37.8497773 26.7431155,39.0366875 26.6272597,39.9536364 C23.4323591,42.1242193 20.5183848,43.899058 15.1439748,44.113833 C12.0098905,44.6581932 10.9726279,46.1913091 10.2046579,47.9462193 C9.8816978,48.9549034 9.70817083,50.0134489 9.47755036,51.0473864 C6.52989443,46.4095534 4.81403292,40.911975 4.81403292,34.9867023 C4.81403292,18.4710211 18.0764186,5.13439727 34.5000794,5.13439727 L34.4999992,5.13310636 Z M35.0014527,17.1093541 C36.31319,18.0110541 36.7821975,18.3827552 38.1104643,18.8490155 C40.0252376,18.8675723 40.9060314,19.9444325 40.9186038,21.26947 C40.9186038,23.7706064 41.7729273,25.2844393 41.9215108,25.7826495 C42.0700935,26.2806177 42.2245893,26.592695 41.1191852,29.1863734 C40.0778621,31.2694166 39.0248098,33.0901148 38.1856422,34.4807466 C37.5071075,35.4101205 37.4542494,36.3382034 37.50868,36.9768807 C37.6638578,38.3540386 38.0487575,39.534575 38.3862236,40.8848659 C37.1938475,42.6004841 35.7618969,43.2548943 34.5751771,43.2548943 C33.3952843,43.2548943 32.2609251,42.7270739 31.3909475,41.1369966 C31.6346611,39.5120648 31.6209582,38.0280034 31.4912382,36.497792 C31.3661395,35.4444909 31.2325275,34.9896068 30.6889126,34.1781898 C29.5721716,32.86732 28.7450702,31.7273666 28.0813544,30.1440666 L28.0813544,22.0758848 C28.5657737,18.9543859 31.8093041,16.5683018 35.0014527,17.1093541 Z M28.1064672,44.818508 C29.7749747,46.8922727 32.1341898,48.0962068 34.5752172,48.0962068 C36.9326183,48.0962068 39.2144234,47.034192 41.0439672,45.1714909 C44.5769277,48.2068216 49.4007819,48.8225045 52.9785602,49.659417 C53.7307405,50.3046295 54.125589,51.0300398 54.4076626,51.8023261 L55.6612963,55.962442 C50.2813823,61.4505807 42.7887277,64.837442 34.4999591,64.837442 C26.1983685,64.837442 18.6952604,61.4403341 13.3135492,55.9372693 L14.6925463,49.6844284 C14.8402384,49.2965102 14.9562065,49.1332909 15.7455986,48.902783 C20.8353916,48.6909932 24.7190727,46.9229318 28.1064672,44.818508 Z" id="Shape"></path>
                </g>
            </g>
        </g>
    </g>
</svg>