<?xml version="1.0" encoding="UTF-8" standalone="no"?>
<svg width="61px" height="54px" viewBox="0 0 61 54" version="1.1" xmlns="http://www.w3.org/2000/svg" xmlns:xlink="http://www.w3.org/1999/xlink">
    <!-- Generator: Sketch 42 (36781) - http://www.bohemiancoding.com/sketch -->
    <title>noun_457520</title>
    <desc>Created with Sketch.</desc>
    <defs></defs>
    <g id="Welcome" stroke="none" stroke-width="1" fill="none" fill-rule="evenodd">
        <g id="Add-Client-Modal@2x" transform="translate(-802.000000, -841.000000)" fill-rule="nonzero" stroke="#FFFFFF" fill="#777777">
            <g id="Modal" transform="translate(140.000000, 111.000000)">
                <g id="Sold-Copy-4" transform="translate(590.000000, 656.000000)">
                    <g id="noun_457520" transform="translate(73.000000, 74.000000)">
                        <g id="Group">
                            <path d="M26.3120879,6.90394737 C11.8945055,6.90394737 0.0791208791,18.55 0.0791208791,32.9157895 C0.0791208791,40.4473684 3.38461538,47.5605263 9.08131868,52.5118421 L10.6285714,50.7684211 L10.6989011,50.8381579 L15.9736264,45.6078947 L13.5120879,43.1671053 L9.08131868,47.5605263 C5.98681319,43.9342105 4.08791209,39.4013158 3.73626374,34.6592105 L9.9956044,34.6592105 L9.9956044,31.1723684 L3.73626374,31.1723684 C4.08791209,26.2907895 6.05714286,21.8276316 9.15164835,18.3407895 L13.5824176,22.7342105 L16.043956,20.2934211 L11.6131868,15.9 C15.1296703,12.9013158 19.6307692,10.9486842 24.5538462,10.5302632 L24.5538462,16.7368421 L28.0703297,16.7368421 L28.0703297,10.5302632 C32.9934066,10.8789474 37.4945055,12.8315789 41.010989,15.9 L36.6505495,20.2236842 L39.1120879,22.6644737 L43.5428571,18.2710526 C46.567033,21.7578947 48.5362637,26.2210526 48.9582418,31.1026316 L42.6989011,31.1026316 L42.6989011,34.5894737 L48.9582418,34.5894737 C48.5362637,39.4013158 46.6373626,43.9342105 43.5428571,47.4907895 L39.1120879,43.0973684 L36.6505495,45.5381579 L41.9252747,50.7684211 L41.9956044,50.6986842 L43.5428571,52.4421053 C49.2395604,47.4907895 52.5450549,40.3776316 52.5450549,32.8460526 C52.5450549,18.55 40.7296703,6.90394737 26.3120879,6.90394737 Z" id="Shape"></path>
                            <path d="M26.7340659,25.0355263 C25.0461538,25.0355263 23.4989011,25.5934211 22.232967,26.4302632 L19.0681319,23.2921053 L16.6065934,25.8026316 L19.9120879,29.0802632 C19.3494505,30.1960526 18.9978022,31.3815789 18.9978022,32.7065789 C18.9978022,36.9605263 22.5142857,40.3776316 26.7340659,40.3776316 C31.0241758,40.3776316 34.4703297,36.8907895 34.4703297,32.7065789 C34.5406593,28.4526316 31.0241758,25.0355263 26.7340659,25.0355263 Z M26.7340659,36.8907895 C24.4131868,36.8907895 22.5142857,35.0078947 22.5142857,32.7065789 C22.5142857,32.3578947 22.5846154,32.0789474 22.6549451,31.7302632 L25.5384615,34.5894737 L28.0703297,32.0789474 L24.8351648,29.0105263 C25.3978022,28.7315789 26.0307692,28.5223684 26.7340659,28.5223684 C29.0549451,28.5223684 30.9538462,30.4052632 30.9538462,32.7065789 C30.9538462,35.0078947 29.0549451,36.8907895 26.7340659,36.8907895 Z" id="Shape"></path>
                            <path d="M57.6791209,2.16184211 C56.6241758,1.11578947 55.2175824,0.557894737 53.6703297,0.557894737 C52.1230769,0.557894737 50.7164835,1.11578947 49.6615385,2.16184211 C47.4813187,4.32368421 47.4813187,7.88026316 49.6615385,10.0421053 C50.3648352,10.7394737 51.2791209,11.2276316 52.1934066,11.5065789 L52.1934066,18.1315789 L55.7098901,18.1315789 L55.7098901,11.2973684 C56.4131868,11.0184211 57.0461538,10.6 57.6087912,10.0421053 C59.8593407,7.88026316 59.8593407,4.32368421 57.6791209,2.16184211 Z M55.1472527,7.53157895 C54.3032967,8.36842105 53.0373626,8.36842105 52.1934066,7.53157895 C51.3494505,6.69473684 51.3494505,5.43947368 52.1934066,4.60263158 C52.6153846,4.18421053 53.1076923,3.975 53.6703297,3.975 C54.232967,3.975 54.7252747,4.18421053 55.1472527,4.60263158 C55.9208791,5.43947368 55.9208791,6.76447368 55.1472527,7.53157895 Z" id="Shape"></path>
                        </g>
                    </g>
                </g>
            </g>
        </g>
    </g>
</svg>