<?xml version="1.0" encoding="UTF-8" standalone="no"?>
<svg width="56px" height="64px" viewBox="0 0 56 64" version="1.1" xmlns="http://www.w3.org/2000/svg" xmlns:xlink="http://www.w3.org/1999/xlink">
    <!-- Generator: Sketch 42 (36781) - http://www.bohemiancoding.com/sketch -->
    <title>noun_118487</title>
    <desc>Created with Sketch.</desc>
    <defs></defs>
    <g id="Welcome" stroke="none" stroke-width="1" fill="none" fill-rule="evenodd">
        <g id="Add-Client-Modal@2x" transform="translate(-362.000000, -835.000000)" fill-rule="nonzero" fill="#777777">
            <g id="Modal" transform="translate(140.000000, 111.000000)">
                <g id="Still-Selling-Copy-7" transform="translate(150.000000, 656.000000)">
                    <g id="noun_118487" transform="translate(72.000000, 68.000000)">
                        <path d="M39.84,44.48 C39.84,46.96 37.84,48.88 35.44,48.88 L34.08,48.88 L34.08,63.6 L31.92,63.6 L31.92,46.8 L35.44,46.8 C36.72,46.8 37.76,45.76 37.76,44.48 L37.76,25.2 C37.76,23.92 36.72,22.88 35.44,22.88 L20.72,22.88 C19.44,22.88 18.4,23.92 18.4,25.2 L18.4,44.48 C18.4,45.76 19.44,46.8 20.72,46.8 L24,46.8 L24,63.6 L21.84,63.6 L21.84,48.96 L20.64,48.96 C18.16,48.96 16.24,46.96 16.24,44.56 L16.24,25.2 C16.24,22.72 18.24,20.8 20.64,20.8 L35.36,20.8 C37.84,20.8 39.76,22.8 39.76,25.2 L39.76,44.48 L39.84,44.48 Z M19.52,8.48 C19.52,3.76 23.36,0 28,0 C32.64,0 36.48,3.84 36.48,8.48 C36.48,13.12 32.64,16.96 28,16.96 C23.36,16.96 19.52,13.2 19.52,8.48 Z M21.68,8.48 C21.68,12 24.56,14.88 28.08,14.88 C31.6,14.88 34.48,12 34.48,8.48 C34.48,4.96 31.6,2.08 28.08,2.08 C24.56,2.16 21.68,4.96 21.68,8.48 Z M13.52,63.6 L15.68,63.6 L15.68,51.36 L16.64,51.36 L16.64,49.2 L13.52,49.2 L13.52,63.6 L13.52,63.6 Z M2.4,47.44 L2.4,31.12 C2.4,30.16 3.2,29.36 4.16,29.36 L13.84,29.36 L13.84,27.2 L4.24,27.2 C2.08,27.2 0.32,28.96 0.32,31.12 L0.32,47.44 C0.32,49.6 2.08,51.36 4.24,51.36 L5.04,51.36 L5.04,63.6 L7.2,63.6 L7.2,49.2 L4.24,49.2 C3.2,49.2 2.4,48.4 2.4,47.44 Z M3.04,16.96 C3.04,12.88 6.32,9.6 10.4,9.6 C14.48,9.6 17.76,12.88 17.76,16.96 C17.76,21.04 14.48,24.32 10.4,24.32 C6.32,24.32 3.04,21.04 3.04,16.96 Z M5.2,16.96 C5.2,19.84 7.52,22.16 10.4,22.16 C13.28,22.16 15.6,19.84 15.6,16.96 C15.6,14.08 13.28,11.76 10.4,11.76 C7.52,11.76 5.2,14.08 5.2,16.96 Z M39.36,51.36 L40.32,51.36 L40.32,63.6 L42.48,63.6 L42.48,49.2 L39.36,49.2 L39.36,51.36 Z M51.76,27.2 L42.16,27.2 L42.16,29.36 L51.84,29.36 C52.8,29.36 53.6,30.16 53.6,31.12 L53.6,47.44 C53.6,48.4 52.8,49.2 51.84,49.2 L48.8,49.2 L48.8,63.6 L50.96,63.6 L50.96,51.36 L51.76,51.36 C53.92,51.36 55.68,49.6 55.68,47.44 L55.68,31.12 C55.68,28.96 53.92,27.2 51.76,27.2 Z M38.24,16.96 C38.24,12.88 41.52,9.6 45.6,9.6 C49.68,9.6 52.96,12.88 52.96,16.96 C52.96,21.04 49.68,24.32 45.6,24.32 C41.52,24.32 38.24,21.04 38.24,16.96 Z M40.32,16.96 C40.32,19.84 42.64,22.16 45.52,22.16 C48.4,22.16 50.72,19.84 50.72,16.96 C50.72,14.08 48.4,11.76 45.52,11.76 C42.72,11.68 40.32,14.08 40.32,16.96 Z" id="Shape"></path>
                    </g>
                </g>
            </g>
        </g>
    </g>
</svg>