<?xml version="1.0" encoding="UTF-8" standalone="no"?>
<svg width="71px" height="59px" viewBox="0 0 71 59" version="1.1" xmlns="http://www.w3.org/2000/svg" xmlns:xlink="http://www.w3.org/1999/xlink">
    <!-- Generator: Sketch 42 (36781) - http://www.bohemiancoding.com/sketch -->
    <title>Group</title>
    <desc>Created with Sketch.</desc>
    <defs></defs>
    <g id="Welcome" stroke="none" stroke-width="1" fill="none" fill-rule="evenodd">
        <g id="Add-Client-Modal@2x" transform="translate(-575.000000, -837.000000)" stroke="#777777" stroke-width="0.5" fill="#777777" fill-rule="nonzero">
            <g id="Modal" transform="translate(140.000000, 111.000000)">
                <g id="Still-Selling-Copy-6" transform="translate(370.000000, 656.000000)">
                    <g id="Group" transform="translate(66.000000, 71.000000)">
                        <path d="M34.8692602,44.7376696 C37.9594515,44.7376696 40.4731378,42.2224013 40.4731378,39.131218 C40.4731378,36.0400347 37.9594515,33.5255416 34.8692602,33.5255416 C31.7790689,33.5255416 29.2653827,36.0400347 29.2653827,39.131218 C29.2653827,42.2224013 31.7790689,44.7376696 34.8692602,44.7376696 Z M34.8692602,35.1106644 C37.0861703,35.1106644 38.8885236,36.9135963 38.8885236,39.131218 C38.8885236,41.3488397 37.0861703,43.1525467 34.8692602,43.1525467 C32.6523501,43.1525467 30.8499968,41.3488397 30.8499968,39.131218 C30.8499968,36.9135963 32.6523501,35.1106644 34.8692602,35.1106644 Z" id="Shape"></path>
                        <path d="M12.9024011,54.5507038 L25.1895536,54.5507038 C25.1880038,54.6243403 25.1787054,54.6972017 25.1787054,54.7716133 L25.1787054,57.1775895 L26.7633195,57.1775895 L26.7633195,54.7716133 C26.7633195,51.0107253 29.8217411,47.9505469 33.5821971,47.9505469 L36.1578731,47.9505469 C39.9175542,47.9505469 42.9767506,51.0107253 42.9767506,54.7716133 L42.9767506,57.1775895 L44.5613648,57.1775895 L44.5613648,54.7716133 C44.5613648,54.6972017 44.5520663,54.6251154 44.5505166,54.5507038 L56.837669,54.5507038 L56.1976244,50.0689531 L53.6986607,32.5837693 L52.4433673,23.7946702 L46.6566199,23.7946702 L23.0826754,23.7946702 L17.2951531,23.7946702 L16.0398597,32.5837693 L13.5424458,50.0689531 L12.9024011,54.5507038 Z M18.6690019,25.379793 L51.0687436,25.379793 L55.00897,52.965581 L44.359898,52.965581 C43.5307844,49.1961666 40.1701626,46.3646489 36.1570982,46.3646489 L33.5814222,46.3646489 C29.5683578,46.3646489 26.207736,49.1961666 25.3786224,52.965581 L14.7295504,52.965581 L18.6690019,25.379793 Z" id="Shape"></path>
                        <path d="M28.3324362,19.2354074 C28.3324362,16.4643491 30.5865402,14.2095216 33.3567092,14.2095216 L35.3248852,14.2095216 C38.0950542,14.2095216 40.3491582,16.463574 40.3491582,19.2354074 L40.3491582,21.426675 L41.9337723,21.426675 L41.9337723,19.2354074 C41.9337723,15.5900124 38.9691103,12.6243988 35.3248852,12.6243988 L33.3567092,12.6243988 C29.7124841,12.6243988 26.7478221,15.5900124 26.7478221,19.2354074 L26.7478221,21.426675 L28.3324362,21.426675 L28.3324362,19.2354074 L28.3324362,19.2354074 Z" id="Shape"></path>
                        <path d="M28.7369196,5.78782991 C28.7369196,8.8790132 31.2506059,11.3935063 34.3407972,11.3935063 C37.4309885,11.3935063 39.9446747,8.8790132 39.9446747,5.78782991 C39.9446747,2.69664661 37.4309885,0.181378358 34.3407972,0.181378358 C31.2506059,0.181378358 28.7369196,2.69742173 28.7369196,5.78782991 Z M38.3608355,5.78782991 C38.3608355,8.00545162 36.5577073,9.8083835 34.3415721,9.8083835 C32.124662,9.8083835 30.3223087,8.00545162 30.3223087,5.78782991 C30.3223087,3.57020819 32.1254369,1.76650119 34.3415721,1.76650119 C36.5577073,1.76727631 38.3608355,3.57098331 38.3608355,5.78782991 Z" id="Shape"></path>
                        <path d="M61.1614573,33.828614 L63.1296333,33.828614 C65.8998023,33.828614 68.1539063,36.0834415 68.1539063,38.8552749 L68.1539063,42.3332436 L58.2572353,42.3332436 L58.4757494,43.9183665 L69.7385204,43.9183665 L69.7385204,38.8552749 C69.7385204,35.2091048 66.7738584,32.2434911 63.1296333,32.2434911 L61.1614573,32.2434911 C59.614037,32.2434911 58.1929209,32.7822004 57.0654815,33.6759151 L57.3320376,35.6090673 C58.253361,34.5215723 59.6272098,33.828614 61.1614573,33.828614 Z" id="Shape"></path>
                        <path d="M62.1455453,19.8012458 C59.055354,19.8012458 56.5416677,22.315739 56.5416677,25.4069223 C56.5416677,28.4981056 59.055354,31.0133738 62.1455453,31.0133738 C65.2357366,31.0133738 67.7494228,28.4981056 67.7494228,25.4069223 C67.7494228,22.315739 65.2357366,19.8012458 62.1455453,19.8012458 Z M62.1455453,29.428251 C59.9286352,29.428251 58.1262819,27.624544 58.1262819,25.4069223 C58.1262819,23.1893006 59.9294101,21.3863687 62.1455453,21.3863687 C64.3616805,21.3863687 66.1648087,23.1893006 66.1648087,25.4069223 C66.1648087,27.624544 64.3616805,29.428251 62.1455453,29.428251 Z" id="Shape"></path>
                        <path d="M11.4812851,42.3332436 L1.58461416,42.3332436 L1.58461416,38.8552749 C1.58461416,36.0842166 3.83871811,33.828614 6.60888712,33.828614 L8.57783801,33.828614 C10.1120855,33.828614 11.4851594,34.5215723 12.4080325,35.6090673 L12.6745886,33.6759151 C11.5471492,32.7814253 10.1260332,32.2434911 8.57861288,32.2434911 L6.60966199,32.2434911 C2.96466199,32.2434911 0,35.2091048 0,38.8552749 L0,43.9183665 L11.2635459,43.9183665 L11.4812851,42.3332436 Z" id="Shape"></path>
                        <path d="M1.98909758,25.4069223 C1.98909758,28.4981056 4.5027838,31.0133738 7.59297513,31.0133738 C10.6831665,31.0133738 13.1968527,28.4981056 13.1968527,25.4069223 C13.1968527,22.315739 10.6831665,19.8012458 7.59297513,19.8012458 C4.5027838,19.8012458 1.98909758,22.315739 1.98909758,25.4069223 Z M11.6130134,25.4069223 C11.6130134,27.624544 9.8098852,29.428251 7.59375,29.428251 C5.3776148,29.428251 3.57448661,27.624544 3.57448661,25.4069223 C3.57448661,23.1893006 5.3776148,21.3863687 7.59375,21.3863687 C9.8098852,21.3863687 11.6130134,23.1893006 11.6130134,25.4069223 Z" id="Shape"></path>
                    </g>
                </g>
            </g>
        </g>
    </g>
</svg>