<?xml version="1.0" encoding="UTF-8" standalone="no"?>
<svg width="155px" height="40px" viewBox="0 0 155 40" version="1.1" xmlns="http://www.w3.org/2000/svg" xmlns:xlink="http://www.w3.org/1999/xlink">
    <!-- Generator: Sketch 43.2 (39069) - http://www.bohemiancoding.com/sketch -->
    <title>Logo</title>
    <desc>Created with Sketch.</desc>
    <defs></defs>
    <g id="Symbols" stroke="none" stroke-width="1" fill="none" fill-rule="evenodd">
        <g id="Logo">
            <g>
                <path d="M65.26,17.5 L62.9,18.06 L62.16,15.06 L66.26,13.9 L69.08,13.9 L69.08,28 L65.26,28 L65.26,17.5 Z M77.72,28.28 C76.719995,28.28 75.8233373,28.0900019 75.03,27.71 C74.2366627,27.3299981 73.5600028,26.8100033 73,26.15 C72.4399972,25.4899967 72.0100015,24.7200044 71.71,23.84 C71.4099985,22.9599956 71.26,22.0266716 71.26,21.04 L71.26,21 C71.26,20.0133284 71.4133318,19.0766711 71.72,18.19 C72.0266682,17.3033289 72.4599972,16.5300033 73.02,15.87 C73.5800028,15.2099967 74.259996,14.6866686 75.06,14.3 C75.860004,13.9133314 76.759995,13.72 77.76,13.72 C78.760005,13.72 79.6566627,13.9099981 80.45,14.29 C81.2433373,14.6700019 81.9199972,15.1899967 82.48,15.85 C83.0400028,16.5100033 83.4699985,17.2799956 83.77,18.16 C84.0700015,19.0400044 84.22,19.9733284 84.22,20.96 L84.22,21 C84.22,21.9866716 84.0700015,22.9233289 83.77,23.81 C83.4699985,24.6966711 83.0366695,25.4699967 82.47,26.13 C81.9033305,26.7900033 81.220004,27.3133314 80.42,27.7 C79.619996,28.0866686 78.720005,28.28 77.72,28.28 Z M77.76,24.84 C78.1466686,24.84 78.4999984,24.7466676 78.82,24.56 C79.1400016,24.3733324 79.4099989,24.1100017 79.63,23.77 C79.8500011,23.4299983 80.0199994,23.0300023 80.14,22.57 C80.2600006,22.1099977 80.32,21.6000028 80.32,21.04 L80.32,21 C80.32,20.4399972 80.2566673,19.9233357 80.13,19.45 C80.0033327,18.9766643 79.8266678,18.5700017 79.6,18.23 C79.3733322,17.8899983 79.1000016,17.6233343 78.78,17.43 C78.4599984,17.2366657 78.1066686,17.14 77.72,17.14 C77.3333314,17.14 76.9833349,17.2333324 76.67,17.42 C76.3566651,17.6066676 76.0866678,17.8699983 75.86,18.21 C75.6333322,18.5500017 75.4600006,18.953331 75.34,19.42 C75.2199994,19.886669 75.16,20.3999972 75.16,20.96 L75.16,21 C75.16,21.5600028 75.2233327,22.0766643 75.35,22.55 C75.4766673,23.0233357 75.6533322,23.4299983 75.88,23.77 C76.1066678,24.1100017 76.3799984,24.3733324 76.7,24.56 C77.0200016,24.7466676 77.3733314,24.84 77.76,24.84 Z M90.36,28.28 C88.9999932,28.28 87.8400048,28.0566689 86.88,27.61 C85.9199952,27.1633311 85.0933368,26.5600038 84.4,25.8 L86.86,23.36 C87.3666692,23.8666692 87.886664,24.2599986 88.42,24.54 C88.953336,24.8200014 89.5466634,24.96 90.2,24.96 C90.7600028,24.96 91.1966651,24.8300013 91.51,24.57 C91.8233349,24.3099987 91.98,23.9666688 91.98,23.54 L91.98,23.5 C91.98,23.0466644 91.7866686,22.6933346 91.4,22.44 C91.0133314,22.1866654 90.4466704,22.06 89.7,22.06 L88.06,22.06 L87.52,20.04 L90.72,17.14 L85.38,17.14 L85.38,14 L95.48,14 L95.48,16.76 L92.14,19.64 C92.6333358,19.7466672 93.0999978,19.899999 93.54,20.1 C93.9800022,20.300001 94.366665,20.5566651 94.7,20.87 C95.033335,21.1833349 95.2933324,21.5633311 95.48,22.01 C95.6666676,22.4566689 95.76,22.979997 95.76,23.58 L95.76,23.62 C95.76,24.3266702 95.6233347,24.9666638 95.35,25.54 C95.0766653,26.1133362 94.7000024,26.6033313 94.22,27.01 C93.7399976,27.4166687 93.1700033,27.7299989 92.51,27.95 C91.8499967,28.1700011 91.1333372,28.28 90.36,28.28 Z M100.72,17.5 L98.36,18.06 L97.62,15.06 L101.72,13.9 L104.54,13.9 L104.54,28 L100.72,28 L100.72,17.5 Z M112.68,14 L123.88,14 L123.88,17.4 L116.56,17.4 L116.56,19.78 L123.18,19.78 L123.18,23 L116.56,23 L116.56,28 L112.68,28 L112.68,14 Z M131.96,28.26 C130.973328,28.26 130.080004,28.1333346 129.28,27.88 C128.479996,27.6266654 127.800003,27.2366693 127.24,26.71 C126.679997,26.1833307 126.250001,25.5166707 125.95,24.71 C125.649999,23.9033293 125.5,22.9533388 125.5,21.86 L125.5,14 L129.42,14 L129.42,21.78 C129.42,22.7933384 129.653331,23.5433309 130.12,24.03 C130.586669,24.5166691 131.213329,24.76 132,24.76 C132.800004,24.76 133.433331,24.526669 133.9,24.06 C134.366669,23.593331 134.6,22.8666716 134.6,21.88 L134.6,14 L138.52,14 L138.52,21.76 C138.52,22.8800056 138.363335,23.8499959 138.05,24.67 C137.736665,25.4900041 137.29667,26.166664 136.73,26.7 C136.163331,27.233336 135.476671,27.6266654 134.67,27.88 C133.863329,28.1333346 132.960005,28.26 131.96,28.26 Z M140.82,14 L144.44,14 L150.2,21.4 L150.2,14 L154.04,14 L154.04,28 L150.66,28 L144.66,20.32 L144.66,28 L140.82,28 L140.82,14 Z" id="1031-FUN" fill="#FFFFFF"></path>
                <g id="Mark" stroke="#FFFFFF">
                    <path d="M-1,6.99278641 L-1,38 L-1,39 L0,39 L20,39 L21,39 L21,38 L21,7.10542736e-15 L21,-1.34403065 L19.7126521,-0.957826285 L0.677293685,4.75278124 C-0.273026064,5.03787717 -1,6.00178072 -1,6.99278641 Z" id="Rectangle-9" stroke-width="2"></path>
                    <path d="M21,13.4993845 L21,37.5006155 C21,38.3336514 21.6665511,39 22.4943848,39 L41.5056152,39 C42.3299017,39 43,38.3266145 43,37.5009232 L43,23 L43,22.5857864 L42.7071068,22.2928932 L32.7071068,12.2928932 L32.4142136,12 L32,12 L22.5096495,12 C21.6798965,12 21,12.6666769 21,13.4993845 Z" id="Rectangle-4" stroke-width="2"></path>
                    <rect id="Rectangle-5" stroke-width="2" x="7" y="30" width="6" height="9" rx="1"></rect>
                    <rect id="Rectangle-10" x="4.5" y="14.5" width="11" height="1" rx="0.5"></rect>
                    <rect id="Rectangle-10-Copy-3" x="4.5" y="9.5" width="11" height="1" rx="0.5"></rect>
                    <rect id="Rectangle-10-Copy" x="4.5" y="19.5" width="11" height="1" rx="0.5"></rect>
                    <rect id="Rectangle-10-Copy-4" x="26.5" y="27.5" width="11" height="1" rx="0.5"></rect>
                    <rect id="Rectangle-10-Copy-2" x="4.5" y="24.5" width="11" height="1" rx="0.5"></rect>
                    <rect id="Rectangle-10-Copy-5" x="26.5" y="32.5" width="11" height="1" rx="0.5"></rect>
                    <path d="M33,13.4142136 L41.5857864,22 L33,22 L33,13.4142136 Z" id="Rectangle-11" stroke-width="2"></path>
                </g>
            </g>
        </g>
    </g>
</svg>