<?xml version="1.0" encoding="UTF-8" standalone="no"?>
<svg width="76px" height="52px" viewBox="0 0 76 52" version="1.1" xmlns="http://www.w3.org/2000/svg" xmlns:xlink="http://www.w3.org/1999/xlink">
    <!-- Generator: Sketch 42 (36781) - http://www.bohemiancoding.com/sketch -->
    <title>noun_407181</title>
    <desc>Created with Sketch.</desc>
    <defs></defs>
    <g id="Welcome" stroke="none" stroke-width="1" fill="none" fill-rule="evenodd">
        <g id="Add-Client-Modal@2x" transform="translate(-1123.000000, -563.000000)" stroke-width="0.5" stroke="#FFFFFF" fill="#777777" fill-rule="nonzero">
            <g id="Modal" transform="translate(140.000000, 111.000000)">
                <g id="Sold-Copy-3" transform="translate(920.000000, 378.000000)">
                    <g id="noun_407181" transform="translate(63.000000, 74.000000)">
                        <g id="Group">
                            <path d="M42.587,51.286 C41.409,51.286 40.302,50.827 39.47,49.993 L34.5,45.023 C33.667,44.191 33.208,43.084 33.208,41.906 C33.208,40.729 33.666,39.622 34.5,38.79 C35.375,37.915 36.481,37.457 37.659,37.457 C38.837,37.457 39.943,37.915 40.776,38.748 L45.746,43.72 C46.579,44.551 47.038,45.658 47.038,46.836 C47.038,48.014 46.579,49.121 45.745,49.953 C44.871,50.827 43.764,51.286 42.587,51.286 Z M37.658,40.457 C37.282,40.457 36.929,40.603 36.662,40.869 C36.354,41.178 36.207,41.531 36.207,41.906 C36.207,42.282 36.353,42.635 36.62,42.902 L41.591,47.873 C42.123,48.406 43.049,48.408 43.58,47.873 C43.89,47.564 44.036,47.212 44.036,46.836 C44.036,46.46 43.89,46.107 43.624,45.842 L38.652,40.869 C38.387,40.604 38.034,40.457 37.658,40.457 Z" id="Shape"></path>
                            <path d="M46.74,47.132 C45.563,47.132 44.456,46.674 43.624,45.841 L38.653,40.869 C37.82,40.037 37.362,38.93 37.362,37.753 C37.362,36.575 37.82,35.469 38.653,34.636 C39.527,33.762 40.634,33.303 41.812,33.303 C42.99,33.303 44.097,33.762 44.929,34.596 L49.899,39.566 C51.617,41.285 51.617,44.081 49.9,45.799 C49.025,46.674 47.918,47.132 46.74,47.132 Z M41.813,36.303 C41.437,36.303 41.084,36.449 40.818,36.716 C40.509,37.024 40.363,37.377 40.363,37.753 C40.363,38.129 40.509,38.482 40.775,38.748 L45.746,43.72 C46.278,44.252 47.207,44.25 47.737,43.72 C48.327,43.129 48.327,42.236 47.778,41.687 L42.808,36.716 C42.541,36.449 42.188,36.303 41.813,36.303 Z" id="Shape"></path>
                            <path d="M50.895,42.978 C49.717,42.978 48.611,42.52 47.778,41.687 L42.808,36.716 C41.975,35.883 41.517,34.776 41.517,33.599 C41.517,32.421 41.975,31.315 42.808,30.482 C43.682,29.608 44.789,29.15 45.966,29.15 C47.144,29.15 48.251,29.608 49.083,30.441 L54.054,35.412 C55.772,37.133 55.771,39.929 54.054,41.645 C53.18,42.52 52.072,42.978 50.895,42.978 Z M45.966,32.149 C45.591,32.149 45.237,32.295 44.971,32.561 C44.663,32.869 44.517,33.222 44.517,33.598 C44.517,33.974 44.663,34.327 44.93,34.594 L49.9,39.565 C50.431,40.096 51.36,40.096 51.891,39.565 C52.481,38.974 52.481,38.081 51.932,37.531 L46.962,32.561 C46.696,32.296 46.342,32.149 45.966,32.149 Z" id="Shape"></path>
                            <path d="M55.048,38.825 C53.87,38.825 52.763,38.366 51.931,37.532 L46.961,32.562 C46.128,31.73 45.669,30.623 45.669,29.445 C45.669,28.268 46.128,27.161 46.961,26.328 C47.835,25.454 48.942,24.995 50.119,24.995 C51.297,24.995 52.403,25.453 53.236,26.287 L58.207,31.258 C59.04,32.09 59.498,33.196 59.498,34.374 C59.498,35.551 59.04,36.658 58.207,37.49 C57.332,38.366 56.225,38.825 55.048,38.825 Z M50.119,27.996 C49.743,27.996 49.39,28.142 49.124,28.408 C48.815,28.717 48.669,29.07 48.669,29.445 C48.669,29.821 48.815,30.174 49.082,30.44 L54.053,35.412 C54.586,35.944 55.511,35.946 56.042,35.412 C56.352,35.104 56.498,34.751 56.498,34.375 C56.498,33.999 56.352,33.646 56.086,33.381 L51.114,28.408 C50.849,28.143 50.495,27.996 50.119,27.996 Z" id="Shape"></path>
                            <path d="M25.979,42.608 C24.802,42.608 23.695,42.15 22.862,41.317 C21.102,39.556 21.102,36.76 22.82,35.042 C23.406,34.456 24.355,34.456 24.941,35.042 C25.527,35.628 25.527,36.577 24.941,37.163 C24.675,37.429 24.529,37.783 24.529,38.158 C24.529,38.534 24.675,38.888 24.941,39.154 C25.558,39.77 26.442,39.726 26.974,39.196 C27.56,38.61 28.51,38.61 29.096,39.196 C29.681,39.782 29.681,40.732 29.096,41.317 C28.264,42.15 27.157,42.608 25.979,42.608 Z" id="Shape"></path>
                            <path d="M30.134,46.763 C28.956,46.763 27.849,46.305 27.017,45.472 C26.142,44.598 25.684,43.491 25.684,42.313 C25.684,41.135 26.143,40.028 26.976,39.196 C27.562,38.612 28.512,38.61 29.098,39.198 C29.683,39.784 29.682,40.733 29.097,41.319 C28.831,41.585 28.685,41.937 28.685,42.313 C28.685,42.689 28.831,43.042 29.098,43.309 C29.714,43.924 30.598,43.882 31.131,43.351 C31.717,42.765 32.666,42.765 33.252,43.351 C33.838,43.937 33.838,44.886 33.252,45.472 C32.418,46.305 31.311,46.763 30.134,46.763 Z" id="Shape"></path>
                            <path d="M34.289,50.917 C33.112,50.917 32.005,50.459 31.172,49.626 C29.411,47.865 29.411,45.069 31.13,43.351 C31.716,42.765 32.665,42.765 33.251,43.351 C33.837,43.937 33.837,44.886 33.251,45.472 C32.985,45.738 32.838,46.092 32.838,46.467 C32.838,46.843 32.985,47.197 33.251,47.463 C33.866,48.077 34.751,48.036 35.284,47.505 L37.193,45.596 C37.779,45.01 38.729,45.01 39.315,45.596 C39.901,46.182 39.901,47.131 39.315,47.717 L37.407,49.626 C36.573,50.459 35.466,50.917 34.289,50.917 Z" id="Shape"></path>
                            <path d="M21.827,38.455 C20.648,38.455 19.542,37.996 18.71,37.162 C17.836,36.289 17.377,35.182 17.377,34.005 C17.377,32.827 17.836,31.72 18.669,30.888 L29.101,20.457 C30.066,19.491 31.35,18.959 32.716,18.959 C34.082,18.959 35.365,19.491 36.331,20.457 L40.079,24.124 C41.362,25.408 43.55,25.397 44.811,24.135 L45.874,23.103 L34.206,11.429 C33.412,10.636 32.018,10.633 31.221,11.431 L30.395,12.256 C29.429,13.221 28.145,13.753 26.78,13.753 C25.414,13.753 24.131,13.221 23.165,12.255 L22.307,11.397 C21.721,10.812 21.721,9.861 22.307,9.276 C22.893,8.69 23.842,8.69 24.428,9.276 L25.286,10.134 C26.084,10.931 27.474,10.932 28.274,10.134 L29.1,9.31 C30.065,8.345 31.349,7.812 32.715,7.812 C34.081,7.812 35.364,8.344 36.33,9.31 L49.072,22.058 C49.356,22.342 49.514,22.728 49.511,23.13 C49.508,23.532 49.344,23.915 49.056,24.195 L46.916,26.272 C45.734,27.453 44.143,28.112 42.45,28.112 C40.757,28.112 39.165,27.453 37.968,26.256 L34.22,22.589 C33.399,21.768 32.019,21.778 31.221,22.577 L20.79,33.01 C20.524,33.277 20.377,33.629 20.377,34.005 C20.377,34.38 20.523,34.734 20.79,35 C21.098,35.309 21.451,35.455 21.827,35.455 C22.202,35.455 22.556,35.309 22.822,35.042 C23.408,34.457 24.357,34.456 24.943,35.041 C25.529,35.627 25.529,36.577 24.944,37.163 C24.111,37.996 23.004,38.455 21.827,38.455 Z" id="Shape"></path>
                            <path d="M38.288,14.89 C37.904,14.89 37.52,14.744 37.227,14.451 C36.641,13.866 36.641,12.916 37.227,12.33 L39.781,9.776 C41.775,7.783 45.017,7.782 47.011,9.776 L47.179,9.944 C48.441,11.205 50.64,11.205 51.9,9.944 C52.486,9.358 53.435,9.359 54.021,9.944 C54.607,10.53 54.607,11.48 54.021,12.066 C52.825,13.263 51.233,13.922 49.54,13.922 C47.848,13.922 46.256,13.263 45.059,12.066 L44.891,11.898 C44.067,11.075 42.727,11.075 41.903,11.898 L39.349,14.452 C39.056,14.744 38.672,14.89 38.288,14.89 Z" id="Shape"></path>
                            <path d="M54.868,31.54 C54.484,31.54 54.1,31.394 53.807,31.101 C53.221,30.515 53.221,29.566 53.807,28.98 L62.447,20.34 C63.033,19.754 63.982,19.754 64.568,20.34 C65.154,20.925 65.154,21.875 64.568,22.461 L55.928,31.101 C55.636,31.394 55.252,31.54 54.868,31.54 Z" id="Shape"></path>
                            <path d="M21.486,31.693 C21.102,31.693 20.718,31.547 20.425,31.254 L11.439,22.268 C10.853,21.682 10.853,20.732 11.439,20.147 C12.025,19.561 12.974,19.561 13.56,20.147 L22.546,29.133 C23.132,29.719 23.132,30.668 22.546,31.254 C22.253,31.547 21.87,31.693 21.486,31.693 Z" id="Shape"></path>
                            <path d="M67.067,24.37 C65.318,24.37 63.675,23.689 62.439,22.453 L50.347,10.359 C50.066,10.078 49.908,9.696 49.908,9.298 C49.908,8.9 50.066,8.519 50.347,8.237 L56.841,1.743 C57.427,1.157 58.376,1.157 58.962,1.743 L74.621,17.403 C75.207,17.988 75.207,18.938 74.621,19.524 L71.694,22.451 C70.458,23.688 68.815,24.37 67.067,24.37 Z M53.528,9.299 L64.56,20.332 C65.9,21.67 68.233,21.672 69.573,20.332 L71.439,18.465 L57.901,4.926 L53.528,9.299 Z" id="Shape"></path>
                            <path d="M8.933,24.185 C7.185,24.185 5.541,23.504 4.306,22.268 L1.379,19.341 C0.793,18.756 0.793,17.805 1.379,17.22 L17.445,1.154 C18.008,0.591 19.004,0.591 19.566,1.154 L26.06,7.648 C26.646,8.233 26.646,9.184 26.06,9.769 L13.561,22.268 C12.324,23.504 10.681,24.185 8.933,24.185 Z M4.56,18.28 L6.427,20.147 C7.766,21.486 10.101,21.485 11.44,20.147 L22.878,8.709 L18.505,4.336 L4.56,18.28 Z" id="Shape"></path>
                        </g>
                    </g>
                </g>
            </g>
        </g>
    </g>
</svg>