<?xml version="1.0" encoding="UTF-8" standalone="no"?>
<svg width="53px" height="60px" viewBox="0 0 53 60" version="1.1" xmlns="http://www.w3.org/2000/svg" xmlns:xlink="http://www.w3.org/1999/xlink">
    <!-- Generator: Sketch 42 (36781) - http://www.bohemiancoding.com/sketch -->
    <title>noun_969055</title>
    <desc>Created with Sketch.</desc>
    <defs></defs>
    <g id="Welcome" stroke="none" stroke-width="1" fill="none" fill-rule="evenodd">
        <g id="Add-Client-Modal@2x" transform="translate(-694.000000, -281.000000)" fill-rule="nonzero" fill="#777777">
            <g id="Modal" transform="translate(140.000000, 111.000000)">
                <g id="Sold" transform="translate(480.000000, 100.000000)">
                    <g id="noun_969055" transform="translate(74.000000, 70.000000)">
                        <g id="Group">
                            <path d="M18.0079545,31.44 L11.2022727,14.76 C11.0215909,14.28 10.5397727,13.92 9.99772727,13.92 C9.45568182,13.92 8.97386364,14.22 8.73295455,14.7 L0.722727273,31.44 C0.301136364,31.68 0,32.1 0,32.64 C0,37.74 4.09545455,41.88 9.21477273,42 L9.275,42 L9.39545455,42 L9.45568182,42 C14.575,41.88 18.6704545,37.68 18.6704545,32.64 C18.6704545,32.1 18.4295455,31.68 18.0079545,31.44 Z M9.81704545,18.6 L14.9965909,31.2 L3.79431818,31.2 L9.81704545,18.6 Z M9.33522727,39.18 C6.20340909,39.18 3.55340909,36.96 2.95113636,34.02 L15.7193182,34.02 C15.1170455,36.96 12.4670455,39.18 9.33522727,39.18 Z" id="Shape"></path>
                            <path d="M43.725,59.58 L9.9375,59.58 C9.21477273,59.58 8.6125,58.98 8.6125,58.26 C8.6125,57.54 9.21477273,56.94 9.9375,56.94 L43.725,56.94 C44.4477273,56.94 45.05,57.54 45.05,58.26 C45.05,58.92 44.4477273,59.58 43.725,59.58 Z" id="Shape"></path>
                            <path d="M52.0965909,31.32 L45.2306818,14.64 C45.05,14.16 44.5681818,13.8 44.0261364,13.8 C43.4840909,13.8 43.0022727,14.1 42.7613636,14.58 L34.8113636,31.32 C34.3897727,31.56 34.0886364,31.98 34.0886364,32.52 C34.0886364,37.62 38.1840909,41.76 43.3034091,41.88 L43.3636364,41.88 L43.4840909,41.88 L43.5443182,41.88 C48.6636364,41.76 52.7590909,37.62 52.7590909,32.52 C52.7590909,32.04 52.4579545,31.56 52.0965909,31.32 Z M43.9056818,18.48 L49.0852273,31.14 L37.8829545,31.14 L43.9056818,18.48 Z M43.4238636,39.06 C40.2920455,39.06 37.6420455,36.84 37.0397727,33.9 L49.8079545,33.9 C49.1454545,36.84 46.5556818,39.06 43.4238636,39.06 Z" id="Shape"></path>
                            <path d="M43.725,8.22 L31.1375,8.22 C30.7159091,6.84 29.6318182,5.7 28.1863636,5.28 L28.1863636,1.86 C28.1863636,1.14 27.5840909,0.54 26.8613636,0.54 C26.1386364,0.54 25.5363636,1.14 25.5363636,1.86 L25.5363636,5.28 C24.1511364,5.7 23.0670455,6.84 22.6454545,8.22 L9.99772727,8.22 C9.275,8.22 8.67272727,8.82 8.67272727,9.54 C8.67272727,10.26 9.275,10.86 9.99772727,10.86 L22.7056818,10.86 C23.1272727,12.18 24.2113636,13.2 25.5363636,13.62 L25.5363636,51.72 L16.8636364,51.72 C16.1409091,51.72 15.5386364,52.32 15.5386364,53.04 C15.5386364,53.76 16.1409091,54.36 16.8636364,54.36 L36.8590909,54.36 C37.5818182,54.36 38.1840909,53.76 38.1840909,53.04 C38.1840909,52.32 37.5818182,51.72 36.8590909,51.72 L28.1863636,51.72 L28.1863636,13.74 C29.5113636,13.32 30.5954545,12.24 31.0772727,10.92 L43.725,10.92 C44.4477273,10.92 45.05,10.32 45.05,9.6 C45.05,8.88 44.4477273,8.22 43.725,8.22 Z M26.8613636,11.22 C25.8977273,11.22 25.1147727,10.44 25.1147727,9.48 C25.1147727,8.52 25.8977273,7.74 26.8613636,7.74 C27.825,7.74 28.6079545,8.52 28.6079545,9.48 C28.6079545,10.44 27.825,11.22 26.8613636,11.22 Z" id="Shape"></path>
                        </g>
                    </g>
                </g>
            </g>
        </g>
    </g>
</svg>