<?xml version="1.0" encoding="UTF-8" standalone="no"?>
<svg width="41px" height="63px" viewBox="0 0 41 63" version="1.1" xmlns="http://www.w3.org/2000/svg" xmlns:xlink="http://www.w3.org/1999/xlink">
    <!-- Generator: Sketch 42 (36781) - http://www.bohemiancoding.com/sketch -->
    <title>noun_588992</title>
    <desc>Created with Sketch.</desc>
    <defs></defs>
    <g id="Welcome" stroke="none" stroke-width="1" fill="none" fill-rule="evenodd">
        <g id="Add-Client-Modal@2x" transform="translate(-480.000000, -280.000000)" stroke="#FFFFFF" fill-rule="nonzero" fill="#777777">
            <g id="Modal" transform="translate(140.000000, 111.000000)">
                <g id="Still-Selling" transform="translate(260.000000, 100.000000)">
                    <g id="noun_588992" transform="translate(81.000000, 70.000000)">
                        <path d="M31.247561,47.5776031 C30.9265244,39.5960707 29.6067073,32.2017682 27.252439,25.0831041 L27.2762195,25.0831041 C30.1536585,25.0831041 32.4960366,22.7222004 32.4960366,19.8220039 C32.4960366,16.9218075 30.1536585,14.5609037 27.2762195,14.5609037 L26.420122,14.5609037 C27.6210366,13.0388998 28.3463415,11.1214145 28.3463415,9.02416503 C28.3463415,4.11060904 24.375,0.107858546 19.5,0.107858546 C14.625,0.107858546 10.6536585,4.11060904 10.6536585,9.02416503 C10.6536585,11.1094303 11.3789634,13.0388998 12.579878,14.5609037 L11.7237805,14.5609037 C8.84634146,14.5609037 6.50396341,16.9218075 6.50396341,19.8220039 C6.50396341,22.7222004 8.84634146,25.0831041 11.7237805,25.0831041 L11.747561,25.0831041 C9.38140244,32.2017682 8.07347561,39.5960707 7.75243902,47.5776031 C3.24603659,49.5430255 0.0832317073,54.0611002 0.0832317073,59.3102161 C0.0832317073,60.2449902 0.832317073,61 1.7597561,61 L37.2402439,61 L37.2521341,61 C38.1795732,61 38.9286585,60.2449902 38.9286585,59.3102161 C38.9286585,59.2263261 38.9286585,50.705501 31.247561,47.5776031 Z M14.0067073,9.03614931 C14.0067073,5.98015717 16.4679878,3.49941061 19.5,3.49941061 C22.5320122,3.49941061 24.9932927,5.98015717 24.9932927,9.03614931 C24.9932927,12.0921415 22.5320122,14.572888 19.5,14.572888 C16.4679878,14.572888 14.0067073,12.0921415 14.0067073,9.03614931 Z M9.8570122,19.8220039 C9.8570122,18.7913556 10.6893293,17.9524558 11.7118902,17.9524558 L27.2643293,17.9524558 C28.2868902,17.9524558 29.1192073,18.7913556 29.1192073,19.8220039 C29.1192073,20.8526523 28.2868902,21.6915521 27.2643293,21.6915521 L11.7118902,21.6915521 C10.6893293,21.7035363 9.8570122,20.8646365 9.8570122,19.8220039 Z M11.652439,40.7345776 L11.7237805,40.7345776 L15.9210366,40.7345776 C16.8484756,40.7345776 17.597561,39.9795678 17.597561,39.0447937 C17.597561,38.1100196 16.8484756,37.3550098 15.9210366,37.3550098 L12.1518293,37.3550098 C12.3420732,36.2165029 12.5560976,35.0899804 12.7939024,33.975442 L20.1182927,33.975442 C21.0457317,33.975442 21.7948171,33.2204322 21.7948171,32.2856582 C21.7948171,31.3508841 21.0457317,30.5958743 20.1182927,30.5958743 L13.602439,30.5958743 C14.089939,28.7383104 14.6606707,26.9047151 15.2908537,25.0831041 L23.6972561,25.0831041 C26.0753049,31.9021611 27.4426829,38.9848723 27.8469512,46.6428291 C27.3118902,46.5709234 26.7768293,46.5229862 26.229878,46.5229862 L12.7582317,46.5229862 C12.2112805,46.5229862 11.6762195,46.5709234 11.1411585,46.6428291 C11.2481707,44.6414538 11.4146341,42.6760314 11.652439,40.7345776 Z M3.57896341,57.6204322 C4.37560976,53.246169 8.1804878,49.9145383 12.7463415,49.9145383 L26.2179878,49.9145383 C30.7838415,49.9145383 34.6006098,53.246169 35.3853659,57.6204322 L3.57896341,57.6204322 Z" id="Shape"></path>
                    </g>
                </g>
            </g>
        </g>
    </g>
</svg>