<?xml version="1.0" encoding="UTF-8" standalone="no"?>
<svg width="63px" height="68px" viewBox="0 0 63 68" version="1.1" xmlns="http://www.w3.org/2000/svg" xmlns:xlink="http://www.w3.org/1999/xlink">
    <!-- Generator: Sketch 42 (36781) - http://www.bohemiancoding.com/sketch -->
    <title>noun_658578</title>
    <desc>Created with Sketch.</desc>
    <defs></defs>
    <g id="Welcome" stroke="none" stroke-width="1" fill="none" fill-rule="evenodd">
        <g id="Add-Client-Modal@2x" transform="translate(-909.000000, -556.000000)" fill-rule="nonzero" fill="#777777">
            <g id="Modal" transform="translate(140.000000, 111.000000)">
                <g id="Still-Selling-Copy-5" transform="translate(700.000000, 378.000000)">
                    <g id="noun_658578" transform="translate(69.000000, 67.000000)">
                        <g id="Group">
                            <g id="Group-2" transform="translate(24.000000, 22.000000)">
                                <path d="M7.17721519,45.788 C4.94111392,45.788 3.18987342,43.9688 3.18987342,41.6456 L3.18987342,28.8504 C1.09891139,27.6816 0,25.6784 0,23.0112 L0,19.0896 C0,15.1824 3.22017722,12.0048 7.17721519,12.0048 C11.1342532,12.0048 14.3544304,15.1832 14.3544304,19.0896 L14.3544304,23.0112 C14.3544304,25.4704 12.7937848,27.504 11.164557,28.7288 L11.164557,41.6456 C11.164557,43.9688 9.41331646,45.788 7.17721519,45.788 Z M7.17721519,14.4048 C4.5838481,14.4048 2.39240506,16.5504 2.39240506,19.0896 L2.39240506,23.0112 C2.39240506,25.016 3.17392405,26.2832 4.85339241,26.9968 L5.58227848,27.308 L5.58227848,41.6464 C5.58227848,42.656 6.25294937,43.3888 7.17721519,43.3888 C8.10148101,43.3888 8.7721519,42.656 8.7721519,41.6464 L8.7721519,27.444 L9.32639241,27.0904 C10.5425316,26.3144 11.9620253,24.7808 11.9620253,23.012 L11.9620253,19.0904 C11.9620253,16.5504 9.77058228,14.4048 7.17721519,14.4048 Z" id="Shape"></path>
                                <path d="M7.30481013,11.16 C4.44429114,11.16 2.11727848,8.8256 2.11727848,5.956 C2.11727848,3.0864 4.44429114,0.7512 7.30481013,0.7512 C10.1653291,0.7512 12.4931392,3.0864 12.4931392,5.956 C12.4931392,8.8256 10.1653291,11.16 7.30481013,11.16 Z M7.30481013,3.1512 C5.7633038,3.1512 4.50968354,4.4096 4.50968354,5.956 C4.50968354,7.5024 5.7633038,8.76 7.30481013,8.76 C8.84631646,8.76 10.1007342,7.5024 10.1007342,5.956 C10.1007342,4.4096 8.84631646,3.1512 7.30481013,3.1512 Z" id="Shape"></path>
                            </g>
                            <path d="M63,60 L43.2405063,60 C42.5802025,60 42.0443038,59.4624 42.0443038,58.8 C42.0443038,58.1376 42.5802025,57.6 43.2405063,57.6 L60.6075949,57.6 L60.6075949,15.276 L31.7886835,3.1072 L2.39240506,15.2824 L2.39240506,57.6 L19.9493671,57.6 C20.6104684,57.6 21.1455696,58.1376 21.1455696,58.8 C21.1455696,59.4624 20.6104684,60 19.9493671,60 L0,60 L0,13.6768 L31.7974557,0.5072 L63,13.6824 L63,60 Z" id="Shape"></path>
                        </g>
                    </g>
                </g>
            </g>
        </g>
    </g>
</svg>