<?xml version="1.0" encoding="UTF-8" standalone="no"?>
<svg width="53px" height="67px" viewBox="0 0 53 67" version="1.1" xmlns="http://www.w3.org/2000/svg" xmlns:xlink="http://www.w3.org/1999/xlink">
    <!-- Generator: Sketch 42 (36781) - http://www.bohemiancoding.com/sketch -->
    <title>noun_177257</title>
    <desc>Created with Sketch.</desc>
    <defs></defs>
    <g id="Welcome" stroke="none" stroke-width="1" fill="none" fill-rule="evenodd">
        <g id="Add-Client-Modal@2x" transform="translate(-254.000000, -556.000000)" fill-rule="nonzero" fill="#777777">
            <g id="Modal" transform="translate(140.000000, 111.000000)">
                <g id="Still-Selling-Copy-4" transform="translate(40.000000, 378.000000)">
                    <g id="noun_177257" transform="translate(74.000000, 67.000000)">
                        <g id="Group">
                            <path d="M15.0631579,0.697916667 L14.6447368,1.11666667 L14.6447368,1.11666667 L0.976315789,14.7958333 L0.976315789,14.7958333 L0.557894737,15.2145833 L0.557894737,66.3020833 L52.4421053,66.3020833 L52.4421053,0.697916667 L15.0631579,0.697916667 Z M14.2263158,5.44375 L14.2263158,14.3770833 L5.3,14.3770833 L9.76315789,9.91041667 L14.2263158,5.44375 Z M49.6526316,63.5104167 L3.34736842,63.5104167 L3.34736842,17.16875 L15.6210526,17.16875 C16.4578947,17.16875 17.0157895,16.6104167 17.0157895,15.7729167 L17.0157895,3.48958333 L49.6526316,3.48958333 L49.6526316,63.5104167 Z" id="Shape"></path>
                            <path d="M22.1763158,37.5479167 C22.4552632,37.6875 22.8736842,37.9666667 23.1526316,38.10625 C23.0131579,38.3854167 22.8736842,38.94375 22.7342105,39.2229167 C22.1763158,40.4791667 21.6184211,41.7354167 22.4552632,42.8520833 C23.1526316,43.8291667 24.4078947,43.8291667 24.8263158,43.8291667 L25.9421053,43.8291667 L27.0578947,43.8291667 C27.1973684,44.1083333 27.1973684,44.6666667 27.3368421,44.9458333 C27.3368421,45.0854167 27.4763158,45.225 27.4763158,45.5041667 L19.8052632,58.625 L22.1763158,60.0208333 L29.15,48.0166667 L29.15,48.0166667 C29.4289474,48.15625 29.5684211,48.15625 29.8473684,48.15625 C30.8236842,48.15625 31.6605263,47.4583333 32.4973684,46.7604167 C32.6368421,46.48125 33.0552632,46.2020833 33.3342105,46.0625 C33.4736842,46.2020833 33.8921053,46.48125 34.1710526,46.7604167 C34.8684211,47.4583333 35.8447368,48.15625 36.8210526,48.15625 C36.9605263,48.15625 37.1,48.15625 37.2394737,48.0166667 L44.2131579,60.0208333 L46.5842105,58.625 L39.1921053,45.7833333 C39.3315789,45.5041667 39.3315789,45.225 39.4710526,44.9458333 C39.4710526,44.5270833 39.6105263,44.1083333 39.75,43.8291667 L40.8657895,43.8291667 L41.9815789,43.8291667 C42.4,43.8291667 43.6552632,43.8291667 44.3526316,42.8520833 C45.05,41.7354167 44.4921053,40.3395833 44.0736842,39.2229167 C43.9342105,38.8041667 43.6552632,38.3854167 43.6552632,38.10625 C43.9342105,37.9666667 44.3526316,37.6875 44.6315789,37.5479167 C45.6078947,36.85 46.8631579,36.1520833 46.8631579,34.75625 C46.8631579,33.3604167 45.7473684,32.6625 44.6315789,31.9645833 C44.3526316,31.825 43.9342105,31.5458333 43.6552632,31.40625 C43.7947368,31.1270833 43.9342105,30.56875 44.0736842,30.2895833 C44.6315789,29.0333333 45.1894737,27.7770833 44.3526316,26.6604167 C43.6552632,25.6833333 42.4,25.6833333 41.9815789,25.6833333 L40.8657895,25.6833333 L39.75,25.6833333 C39.6105263,25.4041667 39.6105263,24.8458333 39.4710526,24.5666667 C39.1921053,23.3104167 38.7736842,21.9145833 37.5184211,21.4958333 C37.2394737,21.35625 37.1,21.35625 36.8210526,21.35625 C35.8447368,21.35625 35.0078947,22.0541667 34.1710526,22.7520833 C34.0315789,23.03125 33.6131579,23.3104167 33.3342105,23.45 C33.1947368,23.3104167 32.7763158,23.03125 32.4973684,22.7520833 C31.8,22.0541667 30.8236842,21.35625 29.8473684,21.35625 C29.5684211,21.35625 29.2894737,21.4958333 29.15,21.4958333 C27.8947368,21.9145833 27.4763158,23.3104167 27.1973684,24.5666667 C27.1973684,24.9854167 27.0578947,25.4041667 26.9184211,25.6833333 L25.8026316,25.6833333 L24.6868421,25.6833333 C24.2684211,25.6833333 23.0131579,25.6833333 22.3157895,26.6604167 C21.6184211,27.7770833 22.1763158,29.1729167 22.5947368,30.2895833 C22.7342105,30.7083333 23.0131579,31.1270833 23.0131579,31.40625 C22.7342105,31.5458333 22.3157895,31.825 22.0368421,31.9645833 C21.0605263,32.6625 19.8052632,33.3604167 19.8052632,34.75625 C19.8052632,36.1520833 21.0605263,36.85 22.1763158,37.5479167 Z M23.5710526,34.6166667 C24.4078947,34.0583333 25.3842105,33.5 25.6631579,32.5229167 C25.9421053,31.5458333 25.5236842,30.56875 25.1052632,29.5916667 C24.9657895,29.4520833 24.9657895,29.1729167 24.8263158,28.89375 L25.5236842,28.89375 L26.6394737,28.89375 C27.1973684,28.89375 28.0342105,28.7541667 28.5921053,28.3354167 C29.4289474,27.7770833 29.7078947,26.6604167 29.9868421,25.6833333 C29.9868421,25.54375 29.9868421,25.2645833 30.1263158,24.9854167 C30.2657895,25.125 30.5447368,25.2645833 30.6842105,25.4041667 C31.5210526,26.1020833 32.3578947,26.8 33.3342105,26.8 C34.3105263,26.8 35.1473684,26.1020833 35.9842105,25.4041667 C36.1236842,25.2645833 36.4026316,24.9854167 36.5421053,24.8458333 C36.5421053,24.9854167 36.6815789,25.4041667 36.6815789,25.54375 C36.9605263,26.5208333 37.2394737,27.6375 38.0763158,28.1958333 C38.7736842,28.7541667 39.4710526,28.7541667 40.0289474,28.7541667 L41.1447368,28.7541667 L41.8421053,28.7541667 C41.7026316,29.0333333 41.7026316,29.3125 41.5631579,29.4520833 C41.1447368,30.4291667 40.7263158,31.40625 41.0052632,32.3833333 C41.2842105,33.3604167 42.2605263,33.91875 43.0973684,34.4770833 C43.3763158,34.6166667 43.5157895,34.75625 43.7947368,34.8958333 C43.5157895,35.0354167 43.2368421,35.175 43.0973684,35.3145833 C42.2605263,35.8729167 41.2842105,36.43125 41.0052632,37.4083333 C40.7263158,38.3854167 41.1447368,39.3625 41.5631579,40.3395833 C41.7026316,40.4791667 41.7026316,40.7583333 41.8421053,41.0375 L41.1447368,41.0375 L40.0289474,41.0375 C39.4710526,41.0375 38.6342105,41.1770833 38.0763158,41.5958333 C37.2394737,42.1541667 36.9605263,43.2708333 36.6815789,44.2479167 C36.6815789,44.3875 36.6815789,44.6666667 36.5421053,44.9458333 C36.4026316,44.80625 36.1236842,44.6666667 35.9842105,44.5270833 C35.1473684,43.8291667 34.3105263,43.13125 33.3342105,43.13125 C32.3578947,43.13125 31.5210526,43.8291667 30.6842105,44.5270833 C30.5447368,44.6666667 30.2657895,44.9458333 30.1263158,45.0854167 C30.1263158,44.9458333 29.9868421,44.5270833 29.9868421,44.3875 C29.7078947,43.4104167 29.4289474,42.29375 28.5921053,41.7354167 C27.8947368,41.1770833 27.1973684,41.1770833 26.6394737,41.1770833 L25.5236842,41.1770833 L24.8263158,41.1770833 C24.9657895,40.8979167 24.9657895,40.61875 25.1052632,40.4791667 C25.5236842,39.5020833 25.9421053,38.525 25.6631579,37.5479167 C25.3842105,36.5708333 24.4078947,36.0125 23.5710526,35.4541667 C23.2921053,35.3145833 23.1526316,35.175 22.8736842,35.0354167 C23.1526316,34.8958333 23.4315789,34.75625 23.5710526,34.6166667 Z" id="Shape"></path>
                            <path d="M33.3342105,40.4791667 C36.4026316,40.4791667 38.7736842,37.9666667 38.7736842,35.0354167 C38.7736842,32.1041667 36.4026316,29.5916667 33.3342105,29.5916667 C30.4052632,29.5916667 27.8947368,31.9645833 27.8947368,35.0354167 C27.8947368,37.9666667 30.2657895,40.4791667 33.3342105,40.4791667 Z M33.3342105,32.24375 C34.8684211,32.24375 35.9842105,33.5 35.9842105,34.8958333 C35.9842105,36.2916667 34.8684211,37.5479167 33.3342105,37.5479167 C31.9394737,37.5479167 30.6842105,36.43125 30.6842105,34.8958333 C30.6842105,33.5 31.8,32.24375 33.3342105,32.24375 Z" id="Shape"></path>
                        </g>
                    </g>
                </g>
            </g>
        </g>
    </g>
</svg>